<svg width="16" height="11" viewBox="0 0 16 11" fill="none" xmlns="http://www.w3.org/2000/svg">
<path d="M3.74994 4.25H5.24994V3.25C5.24994 3.05109 5.17092 2.86032 5.03027 2.71967C4.88962 2.57902 4.69885 2.5 4.49994 2.5C4.30103 2.5 4.11026 2.57902 3.96961 2.71967C3.82896 2.86032 3.74994 3.05109 3.74994 3.25V4.25Z" fill="#FECE47"/>
<path d="M9.50004 4.99999H15.9704L14.75 2.375L11.5203 0.0465624C11.4779 0.0162836 11.4271 4.69164e-06 11.375 0H5.45123L8.17985 1.90812C8.29091 1.98576 8.37888 2.09202 8.43442 2.21562L9.43442 4.44287C9.52192 4.62674 9.49795 4.80593 9.50004 4.99999Z" fill="#FECE47"/>
<path d="M2.5 6.12695V9.62214L4.15562 7.87454L2.5 6.12695Z" fill="#FECE47"/>
<path d="M6.16892 5.75H2.83136L4.50014 7.5115L6.16892 5.75Z" fill="#FECE47"/>
<path d="M2.83136 9.99978H6.16892L4.50014 8.23828L2.83136 9.99978Z" fill="#FECE47"/>
<path d="M7.97813 2.42037C7.92713 2.29087 4.75626 0.124189 4.64329 0.0451265C4.60166 0.0160112 4.55214 0.000271454 4.50134 3.47945e-06C4.45054 -0.000264495 4.40086 0.0149522 4.35892 0.0436266C4.24248 0.123283 1.07242 2.23531 1.02114 2.37175C0.984859 2.46809 -0.00470192 4.64928 1.68221e-05 4.75V10.4975C1.68221e-05 10.6301 0.0526952 10.7573 0.146463 10.851C0.240231 10.9448 0.367408 10.9975 0.500016 10.9975H8.50001C8.63262 10.9975 8.75979 10.9448 8.85356 10.851C8.94733 10.7573 9.00001 10.6301 9.00001 10.4975V4.75C9.00401 4.64687 8.01676 2.51875 7.97813 2.42037ZM3.25001 3.25C3.25001 2.91848 3.38171 2.60054 3.61613 2.36612C3.85055 2.1317 4.16849 2 4.50001 2C4.83153 2 5.14947 2.1317 5.38389 2.36612C5.61831 2.60054 5.75001 2.91848 5.75001 3.25V4.5C5.75001 4.5663 5.72367 4.62989 5.67679 4.67677C5.6299 4.72366 5.56631 4.75 5.50001 4.75H3.50001C3.43371 4.75 3.37012 4.72366 3.32324 4.67677C3.27635 4.62989 3.25001 4.5663 3.25001 4.5V3.25ZM7.00001 10.25C7.00001 10.3163 6.97367 10.3799 6.92679 10.4268C6.8799 10.4737 6.81631 10.5 6.75001 10.5H2.25001C2.18371 10.5 2.12012 10.4737 2.07324 10.4268C2.02635 10.3799 2.00001 10.3163 2.00001 10.25V5.5C2.00001 5.43369 2.02635 5.3701 2.07324 5.32322C2.12012 5.27634 2.18371 5.25 2.25001 5.25H6.75001C6.81631 5.25 6.8799 5.27634 6.92679 5.32322C6.97367 5.3701 7.00001 5.43369 7.00001 5.5V10.25Z" fill="#FECE47"/>
<path d="M6.49992 9.62214V6.12695L4.8443 7.87454L6.49992 9.62214Z" fill="#FECE47"/>
<path d="M10.4999 6.5H11.9999V7.5H10.4999V6.5Z" fill="#FECE47"/>
<path d="M9.5 5.5V10.5C9.5 10.6326 9.55268 10.7598 9.64645 10.8535C9.74021 10.9473 9.86739 11 10 11H15.5C15.6326 11 15.7598 10.9473 15.8535 10.8535C15.9473 10.7598 16 10.6326 16 10.5V5.5H9.5ZM12.25 9H10.25C10.1837 9 10.1201 8.97366 10.0732 8.92677C10.0263 8.87989 10 8.8163 10 8.75C10 8.68369 10.0263 8.6201 10.0732 8.57322C10.1201 8.52634 10.1837 8.5 10.25 8.5H12.25C12.3163 8.5 12.3799 8.52634 12.4268 8.57322C12.4737 8.6201 12.5 8.68369 12.5 8.75C12.5 8.8163 12.4737 8.87989 12.4268 8.92677C12.3799 8.97366 12.3163 9 12.25 9ZM12.5 7.75C12.5 7.8163 12.4737 7.87989 12.4268 7.92677C12.3799 7.97366 12.3163 8 12.25 8H10.25C10.1837 8 10.1201 7.97366 10.0732 7.92677C10.0263 7.87989 10 7.8163 10 7.75V6.25C10 6.1837 10.0263 6.12011 10.0732 6.07322C10.1201 6.02634 10.1837 6 10.25 6H12.25C12.3163 6 12.3799 6.02634 12.4268 6.07322C12.4737 6.12011 12.5 6.1837 12.5 6.25V7.75ZM15.25 9H13.25C13.1837 9 13.1201 8.97366 13.0732 8.92677C13.0263 8.87989 13 8.8163 13 8.75C13 8.68369 13.0263 8.6201 13.0732 8.57322C13.1201 8.52634 13.1837 8.5 13.25 8.5H15.25C15.3163 8.5 15.3799 8.52634 15.4268 8.57322C15.4737 8.6201 15.5 8.68369 15.5 8.75C15.5 8.8163 15.4737 8.87989 15.4268 8.92677C15.3799 8.97366 15.3163 9 15.25 9ZM15.5 7.75C15.5 7.8163 15.4737 7.87989 15.4268 7.92677C15.3799 7.97366 15.3163 8 15.25 8H13.25C13.1837 8 13.1201 7.97366 13.0732 7.92677C13.0263 7.87989 13 7.8163 13 7.75V6.25C13 6.1837 13.0263 6.12011 13.0732 6.07322C13.1201 6.02634 13.1837 6 13.25 6H15.25C15.3163 6 15.3799 6.02634 15.4268 6.07322C15.4737 6.12011 15.5 6.1837 15.5 6.25V7.75Z" fill="#FECE47"/>
<path d="M13.4999 6.5H14.9999V7.5H13.4999V6.5Z" fill="#FECE47"/>
</svg>
