<svg width="14" height="17" viewBox="0 0 14 17" fill="none" xmlns="http://www.w3.org/2000/svg">
<path d="M13.9985 4.04684C13.9985 3.50019 13.3629 3.50019 13.3629 3.50019C13.3629 3.50019 13.9985 3.50019 13.9985 2.81921C13.9985 2.13823 13.234 2.27442 13.234 2.27442C13.2669 2.04093 13.2208 1.80254 13.1039 1.60235C12.987 1.40217 12.8071 1.25341 12.5967 1.18299C11.841 0.910596 11.841 5.13641 9.03572 5.95545C6.23045 6.77449 3.94583 4.59162 4.07295 2.27442C4.07295 2.27442 4.83565 2.13636 4.83565 1.45538C4.83565 1.45538 4.58142 0.7744 3.81872 1.18299C3.81872 1.18299 4.20007 0.500142 3.68986 0.0915531C3.17965 -0.317035 2.80004 0.7744 2.80004 0.7744C2.80004 0.7744 2.41869 -0.186436 1.78137 0.227749C1.78137 0.227749 1.40002 0.500142 1.65426 1.04679C1.65426 1.04679 0.76444 0.910596 0.76444 1.45538C0.76444 1.45538 0.508466 2.00017 1.40002 2.27442C1.40002 2.27442 1.78137 2.68301 0.891557 2.81921L0 3.2278L1.39306 4.04684C1.39306 4.04684 0.501501 8.8193 2.66596 11.1365C2.66596 11.1365 4.44733 13.0451 5.72024 12.7727C5.72024 12.7727 5.59312 14.2653 6.73717 14.4089V15.5004C6.25774 15.4361 5.77145 15.5312 5.34411 15.7728C5.34411 15.7728 5.21526 15.909 5.47123 16.0452C5.47123 16.0452 6.7424 15.909 6.7424 15.7728H7.2526C7.2526 15.7728 7.88819 16.0452 8.26953 15.909C8.26953 15.909 8.52551 15.7728 8.0153 15.6366C7.80164 15.4471 7.52964 15.35 7.2526 15.3642V14.4089C7.2526 14.4089 7.88819 14.5451 8.14242 13.728C8.21425 13.4149 8.25683 13.0949 8.26953 12.7727C9.05572 12.7657 9.82796 12.5496 10.517 12.1438C11.206 11.7381 11.7902 11.1554 12.2171 10.4481C12.2171 10.4481 12.9815 9.77268 13.234 7.18308C13.234 7.18308 13.9967 7.18308 13.9967 6.50024C14.0052 6.42323 13.9971 6.34516 13.9729 6.27207C13.9487 6.19898 13.9092 6.13282 13.8574 6.07871C13.8055 6.02461 13.7428 5.984 13.6739 5.96004C13.6051 5.93608 13.532 5.9294 13.4604 5.94053C13.6135 5.92442 13.7547 5.84551 13.8547 5.72032C13.9547 5.59513 14.0056 5.43336 13.9967 5.26887C13.9967 5.26887 13.9967 4.72409 13.3612 4.72409C13.3629 4.72782 13.9985 4.59162 13.9985 4.04684Z" fill="#FECE47"/>
</svg>
