<svg width="125" height="56" viewBox="0 0 125 56" fill="none" xmlns="http://www.w3.org/2000/svg">
<line x1="-8.74228e-08" y1="55" x2="125" y2="55" stroke="#BDBDBD" stroke-opacity="0.6" stroke-width="2"/>
<path d="M67.2749 21.0312C67.2749 20.4272 66.7852 19.9375 66.1812 19.9375H54.9155C54.3114 19.9375 53.8218 20.4272 53.8218 21.0312C53.8218 21.6353 54.3114 22.125 54.9155 22.125H66.1812C66.7852 22.125 67.2749 21.6353 67.2749 21.0312Z" fill="#BDBDBD" fill-opacity="0.6"/>
<path d="M54.9155 24.3125C54.3114 24.3125 53.8218 24.8022 53.8218 25.4062C53.8218 26.0103 54.3114 26.5 54.9155 26.5H61.7575C62.3616 26.5 62.8513 26.0103 62.8513 25.4062C62.8513 24.8022 62.3616 24.3125 61.7575 24.3125H54.9155Z" fill="#BDBDBD" fill-opacity="0.6"/>
<path d="M57.4859 34.8125H53.8279C52.6217 34.8125 51.6404 33.8312 51.6404 32.625V13.375C51.6404 12.1688 52.6217 11.1875 53.8279 11.1875H67.2749C68.4811 11.1875 69.4624 12.1688 69.4624 13.375V20.1016C69.4624 20.7056 69.9521 21.1953 70.5562 21.1953C71.1603 21.1953 71.6499 20.7056 71.6499 20.1016V13.375C71.6499 10.9626 69.6873 9 67.2749 9H53.8279C51.4155 9 49.4529 10.9626 49.4529 13.375V32.625C49.4529 35.0374 51.4155 37 53.8279 37H57.4859C58.09 37 58.5796 36.5103 58.5796 35.9062C58.5796 35.3022 58.09 34.8125 57.4859 34.8125Z" fill="#BDBDBD" fill-opacity="0.6"/>
<path d="M73.5873 24.8359C72.308 23.5565 70.2263 23.5565 68.9478 24.835L62.9429 30.8266C62.8154 30.9538 62.7213 31.1105 62.669 31.2829L61.3612 35.5882C61.2453 35.9699 61.3463 36.3844 61.6249 36.6699C61.8335 36.8838 62.1171 36.9999 62.4078 36.9999C62.5051 36.9999 62.6033 36.9869 62.6997 36.9601L67.1144 35.7373C67.2961 35.687 67.4617 35.5905 67.5951 35.4573L73.5874 29.4763C74.8667 28.197 74.8667 26.1153 73.5873 24.8359ZM66.2533 33.706L64.0323 34.3212L64.6823 32.1813L68.734 28.1386L70.2811 29.6857L66.2533 33.706ZM72.0414 27.9289L71.8294 28.1404L70.2826 26.5935L70.4938 26.3828C70.9203 25.9563 71.6141 25.9563 72.0406 26.3828C72.467 26.8092 72.467 27.5031 72.0414 27.9289Z" fill="#BDBDBD" fill-opacity="0.6"/>
<path d="M66.1812 15.5625H54.9155C54.3114 15.5625 53.8218 16.0522 53.8218 16.6562C53.8218 17.2603 54.3114 17.75 54.9155 17.75H66.1812C66.7852 17.75 67.2749 17.2603 67.2749 16.6562C67.2749 16.0522 66.7852 15.5625 66.1812 15.5625Z" fill="#BDBDBD" fill-opacity="0.6"/>
<path d="M35.2237 47V42.03H38.0237V42.569H35.8117V44.277H37.8207V44.816H35.8117V47H35.2237ZM39.0756 47V42.03H39.6636V47H39.0756ZM40.8973 47V42.03H41.4853V46.461H43.6973V47H40.8973ZM44.715 47V42.03H45.303V46.461H47.515V47H44.715ZM50.204 47V42.03H51.849C52.2457 42.03 52.605 42.0883 52.927 42.205C53.2537 42.3217 53.5313 42.4897 53.76 42.709C53.9933 42.9237 54.1707 43.1827 54.292 43.486C54.418 43.7893 54.481 44.1277 54.481 44.501C54.481 44.879 54.418 45.222 54.292 45.53C54.1707 45.8333 53.9933 46.0947 53.76 46.314C53.5313 46.5333 53.256 46.7037 52.934 46.825C52.612 46.9417 52.2527 47 51.856 47H50.204ZM50.792 46.461H51.835C52.1477 46.461 52.43 46.4167 52.682 46.328C52.934 46.2347 53.1487 46.104 53.326 45.936C53.5033 45.7633 53.6387 45.558 53.732 45.32C53.83 45.082 53.879 44.8137 53.879 44.515C53.879 44.2163 53.83 43.948 53.732 43.71C53.6387 43.472 53.501 43.269 53.319 43.101C53.1417 42.9283 52.927 42.7977 52.675 42.709C52.4277 42.6157 52.1477 42.569 51.835 42.569H50.792V46.461ZM54.9219 47L56.9239 42.03H57.5469L59.5489 47H58.9189L58.3659 45.586H56.0839L55.5309 47H54.9219ZM56.2939 45.047H58.1489L57.2249 42.681L56.2939 45.047ZM60.3961 47V42.03H60.9841V47H60.3961ZM62.2177 47V42.03H62.8057V46.461H65.0177V47H62.2177ZM66.6682 47V44.998L64.9182 42.03H65.5902L66.9692 44.466L68.3482 42.03H69.0062L67.2562 44.998V47H66.6682ZM71.4903 47V42.03H73.1353C73.5319 42.03 73.8913 42.0883 74.2133 42.205C74.5399 42.3217 74.8176 42.4897 75.0463 42.709C75.2796 42.9237 75.4569 43.1827 75.5783 43.486C75.7043 43.7893 75.7673 44.1277 75.7673 44.501C75.7673 44.879 75.7043 45.222 75.5783 45.53C75.4569 45.8333 75.2796 46.0947 75.0463 46.314C74.8176 46.5333 74.5423 46.7037 74.2203 46.825C73.8983 46.9417 73.5389 47 73.1423 47H71.4903ZM72.0783 46.461H73.1213C73.4339 46.461 73.7163 46.4167 73.9683 46.328C74.2203 46.2347 74.4349 46.104 74.6123 45.936C74.7896 45.7633 74.9249 45.558 75.0183 45.32C75.1163 45.082 75.1653 44.8137 75.1653 44.515C75.1653 44.2163 75.1163 43.948 75.0183 43.71C74.9249 43.472 74.7873 43.269 74.6053 43.101C74.4279 42.9283 74.2133 42.7977 73.9613 42.709C73.7139 42.6157 73.4339 42.569 73.1213 42.569H72.0783V46.461ZM76.2082 47L78.2102 42.03H78.8332L80.8352 47H80.2052L79.6522 45.586H77.3702L76.8172 47H76.2082ZM77.5802 45.047H79.4352L78.5112 42.681L77.5802 45.047ZM82.3898 47V42.569H80.8708V42.03H84.4968V42.569H82.9778V47H82.3898ZM84.5341 47L86.5361 42.03H87.1591L89.1611 47H88.5311L87.9781 45.586H85.6961L85.1431 47H84.5341ZM85.9061 45.047H87.7611L86.8371 42.681L85.9061 45.047Z" fill="#BDBDBD" fill-opacity="0.6"/>
</svg>
