<svg width="125" height="56" viewBox="0 0 125 56" fill="none" xmlns="http://www.w3.org/2000/svg">
<path d="M52.1562 23.125C52.8181 23.125 53.4171 22.8595 53.8597 22.4331L56.2879 23.6471C56.2758 23.746 56.2578 23.8432 56.2578 23.9453C56.2578 25.3022 57.3618 26.4062 58.7188 26.4062C60.0757 26.4062 61.1797 25.3022 61.1797 23.9453C61.1797 23.5666 61.0865 23.2119 60.933 22.8911L64.227 19.597C64.5479 19.7506 64.9025 19.8438 65.2812 19.8438C66.6382 19.8438 67.7422 18.7397 67.7422 17.3828C67.7422 17.1273 67.692 16.8857 67.6194 16.6539L70.4815 14.5079C70.872 14.7687 71.34 14.9219 71.8438 14.9219C73.2007 14.9219 74.3047 13.8179 74.3047 12.4609C74.3047 11.104 73.2007 10 71.8438 10C70.4868 10 69.3828 11.104 69.3828 12.4609C69.3828 12.7164 69.433 12.958 69.5056 13.1898L66.6435 15.3359C66.253 15.075 65.785 14.9219 65.2812 14.9219C63.9243 14.9219 62.8203 16.0259 62.8203 17.3828C62.8203 17.7616 62.9135 18.1162 63.067 18.437L59.773 21.7311C59.4521 21.5775 59.0975 21.4844 58.7188 21.4844C58.0569 21.4844 57.4579 21.7499 57.0153 22.1763L54.5871 20.9623C54.5992 20.8634 54.6172 20.7662 54.6172 20.6641C54.6172 19.3071 53.5132 18.2031 52.1562 18.2031C50.7993 18.2031 49.6953 19.3071 49.6953 20.6641C49.6953 22.021 50.7993 23.125 52.1562 23.125Z" fill="#BDBDBD" fill-opacity="0.6"/>
<path d="M75.1797 36.3594H74.3047V19.0234C74.3047 18.5701 73.9377 18.2031 73.4844 18.2031H70.2031C69.7498 18.2031 69.3828 18.5701 69.3828 19.0234V36.3594H67.7422V23.9453C67.7422 23.492 67.3752 23.125 66.9219 23.125H63.6406C63.1873 23.125 62.8203 23.492 62.8203 23.9453V36.3594H61.1797V30.5078C61.1797 30.0545 60.8127 29.6875 60.3594 29.6875H57.0781C56.6248 29.6875 56.2578 30.0545 56.2578 30.5078V36.3594H54.6172V27.2266C54.6172 26.7733 54.2502 26.4062 53.7969 26.4062H50.5156C50.0623 26.4062 49.6953 26.7733 49.6953 27.2266V36.3594H48.8203C48.367 36.3594 48 36.7264 48 37.1797C48 37.633 48.367 38 48.8203 38H75.1797C75.633 38 76 37.633 76 37.1797C76 36.7264 75.633 36.3594 75.1797 36.3594Z" fill="#BDBDBD" fill-opacity="0.6"/>
<path d="M40.605 47V42.03H42.25C42.6466 42.03 43.006 42.0883 43.328 42.205C43.6546 42.3217 43.9323 42.4897 44.161 42.709C44.3943 42.9237 44.5716 43.1827 44.693 43.486C44.819 43.7893 44.882 44.1277 44.882 44.501C44.882 44.879 44.819 45.222 44.693 45.53C44.5716 45.8333 44.3943 46.0947 44.161 46.314C43.9323 46.5333 43.657 46.7037 43.335 46.825C43.013 46.9417 42.6536 47 42.257 47H40.605ZM41.193 46.461H42.236C42.5486 46.461 42.831 46.4167 43.083 46.328C43.335 46.2347 43.5496 46.104 43.727 45.936C43.9043 45.7633 44.0396 45.558 44.133 45.32C44.231 45.082 44.28 44.8137 44.28 44.515C44.28 44.2163 44.231 43.948 44.133 43.71C44.0396 43.472 43.902 43.269 43.72 43.101C43.5426 42.9283 43.328 42.7977 43.076 42.709C42.8286 42.6157 42.5486 42.569 42.236 42.569H41.193V46.461ZM45.3229 47L47.3249 42.03H47.9479L49.9499 47H49.3199L48.7669 45.586H46.4849L45.9319 47H45.3229ZM46.6949 45.047H48.5499L47.6259 42.681L46.6949 45.047ZM52.0939 47.105C51.8325 47.105 51.5899 47.0607 51.3659 46.972C51.1419 46.8787 50.9482 46.748 50.7849 46.58C50.6215 46.412 50.5025 46.2137 50.4279 45.985L50.9809 45.81C51.0742 46.0527 51.2165 46.2417 51.4079 46.377C51.6039 46.5123 51.8302 46.58 52.0869 46.58C52.2875 46.58 52.4672 46.5403 52.6259 46.461C52.7892 46.377 52.9152 46.265 53.0039 46.125C53.0972 45.9803 53.1439 45.8193 53.1439 45.642C53.1439 45.4133 53.0645 45.2267 52.9059 45.082C52.7519 44.9327 52.5279 44.8253 52.2339 44.76L51.9259 44.69C51.4685 44.5873 51.1255 44.4193 50.8969 44.186C50.6682 43.9527 50.5539 43.6657 50.5539 43.325C50.5539 43.1197 50.5912 42.933 50.6659 42.765C50.7452 42.5923 50.8549 42.443 50.9949 42.317C51.1349 42.191 51.2959 42.0953 51.4779 42.03C51.6645 41.96 51.8652 41.925 52.0799 41.925C52.3319 41.925 52.5629 41.9717 52.7729 42.065C52.9875 42.1537 53.1719 42.282 53.3259 42.45C53.4799 42.618 53.5919 42.814 53.6619 43.038L53.1089 43.213C53.0155 42.9657 52.8802 42.7767 52.7029 42.646C52.5255 42.5153 52.3179 42.45 52.0799 42.45C51.8979 42.45 51.7369 42.4873 51.5969 42.562C51.4569 42.632 51.3472 42.73 51.2679 42.856C51.1885 42.9773 51.1489 43.1197 51.1489 43.283C51.1489 43.4977 51.2259 43.675 51.3799 43.815C51.5339 43.9503 51.7789 44.0577 52.1149 44.137L52.4229 44.207C52.8662 44.3097 53.1952 44.4823 53.4099 44.725C53.6292 44.9677 53.7389 45.2617 53.7389 45.607C53.7389 45.8263 53.6969 46.0293 53.6129 46.216C53.5335 46.398 53.4192 46.5567 53.2699 46.692C53.1252 46.8227 52.9525 46.9253 52.7519 47C52.5512 47.07 52.3319 47.105 52.0939 47.105ZM54.7173 47V42.03H55.3053V44.144H58.0633V42.03H58.6513V47H58.0633V44.683H55.3053V47H54.7173ZM59.8818 47V42.03H61.4708C61.7834 42.03 62.0541 42.0813 62.2828 42.184C62.5114 42.2867 62.6864 42.4337 62.8078 42.625C62.9338 42.8163 62.9968 43.0403 62.9968 43.297C62.9968 43.5397 62.9384 43.752 62.8218 43.934C62.7051 44.116 62.5394 44.2583 62.3248 44.361C62.6048 44.4543 62.8218 44.6107 62.9758 44.83C63.1298 45.0493 63.2068 45.3083 63.2068 45.607C63.2068 45.8917 63.1368 46.139 62.9968 46.349C62.8568 46.5543 62.6584 46.7153 62.4018 46.832C62.1498 46.944 61.8511 47 61.5058 47H59.8818ZM60.4698 42.555V44.144H61.4428C61.7508 44.144 61.9864 44.0763 62.1498 43.941C62.3131 43.8057 62.3948 43.6097 62.3948 43.353C62.3948 43.0963 62.3108 42.9003 62.1428 42.765C61.9748 42.625 61.7414 42.555 61.4428 42.555H60.4698ZM60.4698 46.475H61.4918C61.8418 46.475 62.1148 46.3957 62.3108 46.237C62.5068 46.0783 62.6048 45.8567 62.6048 45.572C62.6048 45.2827 62.5068 45.0587 62.3108 44.9C62.1194 44.7367 61.8464 44.655 61.4918 44.655H60.4698V46.475ZM64.0507 44.522C64.0507 44.2187 64.0904 43.934 64.1697 43.668C64.249 43.402 64.361 43.1593 64.5057 42.94C64.6504 42.7207 64.823 42.534 65.0237 42.38C65.2244 42.2213 65.4484 42.1 65.6957 42.016C65.943 41.932 66.209 41.89 66.4937 41.89C66.8437 41.89 67.1657 41.9553 67.4597 42.086C67.7537 42.212 68.008 42.394 68.2227 42.632C68.442 42.8653 68.61 43.143 68.7267 43.465C68.848 43.7823 68.9087 44.1323 68.9087 44.515C68.9087 44.8183 68.869 45.103 68.7897 45.369C68.7104 45.635 68.5984 45.8777 68.4537 46.097C68.309 46.3163 68.1364 46.5053 67.9357 46.664C67.735 46.818 67.511 46.937 67.2637 47.021C67.0164 47.105 66.7504 47.147 66.4657 47.147C66.1157 47.147 65.7937 47.084 65.4997 46.958C65.2057 46.8273 64.949 46.6453 64.7297 46.412C64.515 46.174 64.347 45.8963 64.2257 45.579C64.109 45.257 64.0507 44.9047 64.0507 44.522ZM64.6527 44.515C64.6527 44.8183 64.697 45.0983 64.7857 45.355C64.879 45.6117 65.0074 45.8333 65.1707 46.02C65.334 46.2067 65.5254 46.3513 65.7447 46.454C65.9687 46.5567 66.2137 46.608 66.4797 46.608C66.7457 46.608 66.9884 46.5567 67.2077 46.454C67.4317 46.3513 67.6254 46.2067 67.7887 46.02C67.952 45.8333 68.078 45.6117 68.1667 45.355C68.26 45.0983 68.3067 44.8183 68.3067 44.515C68.3067 44.2117 68.26 43.934 68.1667 43.682C68.078 43.4253 67.952 43.2037 67.7887 43.017C67.6254 42.8303 67.4317 42.6857 67.2077 42.583C66.9884 42.4803 66.7457 42.429 66.4797 42.429C66.2137 42.429 65.9687 42.4803 65.7447 42.583C65.5254 42.6857 65.334 42.8303 65.1707 43.017C65.0074 43.2037 64.879 43.4253 64.7857 43.682C64.697 43.934 64.6527 44.2117 64.6527 44.515ZM69.3471 47L71.3491 42.03H71.9721L73.9741 47H73.3441L72.7911 45.586H70.5091L69.9561 47H69.3471ZM70.7191 45.047H72.5741L71.6501 42.681L70.7191 45.047ZM74.8213 47V42.03H76.1723C76.5503 42.03 76.877 42.0907 77.1523 42.212C77.4323 42.3333 77.647 42.506 77.7963 42.73C77.9456 42.954 78.0203 43.2177 78.0203 43.521C78.0203 43.8337 77.934 44.109 77.7613 44.347C77.5933 44.585 77.3576 44.7647 77.0543 44.886L78.2583 47H77.5723L76.4943 45.04C76.4336 45.0447 76.366 45.0493 76.2913 45.054C76.2213 45.0587 76.149 45.061 76.0743 45.061C75.981 45.061 75.876 45.0563 75.7593 45.047C75.6473 45.0377 75.5306 45.0237 75.4093 45.005V47H74.8213ZM75.4093 42.555V44.48C75.5166 44.4987 75.631 44.5127 75.7523 44.522C75.8783 44.5313 75.9926 44.536 76.0953 44.536C76.52 44.536 76.8466 44.4497 77.0753 44.277C77.304 44.1043 77.4183 43.8617 77.4183 43.549C77.4183 43.2363 77.3086 42.9937 77.0893 42.821C76.87 42.6437 76.5643 42.555 76.1723 42.555H75.4093ZM79.1586 47V42.03H80.8036C81.2002 42.03 81.5596 42.0883 81.8816 42.205C82.2082 42.3217 82.4859 42.4897 82.7146 42.709C82.9479 42.9237 83.1252 43.1827 83.2466 43.486C83.3726 43.7893 83.4356 44.1277 83.4356 44.501C83.4356 44.879 83.3726 45.222 83.2466 45.53C83.1252 45.8333 82.9479 46.0947 82.7146 46.314C82.4859 46.5333 82.2106 46.7037 81.8886 46.825C81.5666 46.9417 81.2072 47 80.8106 47H79.1586ZM79.7466 46.461H80.7896C81.1022 46.461 81.3846 46.4167 81.6366 46.328C81.8886 46.2347 82.1032 46.104 82.2806 45.936C82.4579 45.7633 82.5932 45.558 82.6866 45.32C82.7846 45.082 82.8336 44.8137 82.8336 44.515C82.8336 44.2163 82.7846 43.948 82.6866 43.71C82.5932 43.472 82.4556 43.269 82.2736 43.101C82.0962 42.9283 81.8816 42.7977 81.6296 42.709C81.3822 42.6157 81.1022 42.569 80.7896 42.569H79.7466V46.461Z" fill="#BDBDBD" fill-opacity="0.6"/>
<line x1="-8.74228e-08" y1="55" x2="125" y2="55" stroke="#BDBDBD" stroke-opacity="0.6" stroke-width="2"/>
</svg>
