<svg width="125" height="56" viewBox="0 0 125 56" fill="none" xmlns="http://www.w3.org/2000/svg">
<line x1="-8.74228e-08" y1="55" x2="125" y2="55" stroke="#BDBDBD" stroke-opacity="0.6" stroke-width="2"/>
<path d="M36.1977 47V42.03H37.8427C38.2394 42.03 38.5987 42.0883 38.9207 42.205C39.2474 42.3217 39.525 42.4897 39.7537 42.709C39.987 42.9237 40.1644 43.1827 40.2857 43.486C40.4117 43.7893 40.4747 44.1277 40.4747 44.501C40.4747 44.879 40.4117 45.222 40.2857 45.53C40.1644 45.8333 39.987 46.0947 39.7537 46.314C39.525 46.5333 39.2497 46.7037 38.9277 46.825C38.6057 46.9417 38.2464 47 37.8497 47H36.1977ZM36.7857 46.461H37.8287C38.1414 46.461 38.4237 46.4167 38.6757 46.328C38.9277 46.2347 39.1424 46.104 39.3197 45.936C39.497 45.7633 39.6324 45.558 39.7257 45.32C39.8237 45.082 39.8727 44.8137 39.8727 44.515C39.8727 44.2163 39.8237 43.948 39.7257 43.71C39.6324 43.472 39.4947 43.269 39.3127 43.101C39.1354 42.9283 38.9207 42.7977 38.6687 42.709C38.4214 42.6157 38.1414 42.569 37.8287 42.569H36.7857V46.461ZM41.5262 47V42.03H44.3892V42.555H42.1142V44.151H44.1932V44.683H42.1142V46.468H44.4592V47H41.5262ZM45.2187 47L47.2207 42.03H47.8437L49.8457 47H49.2157L48.6627 45.586H46.3807L45.8277 47H45.2187ZM46.5907 45.047H48.4457L47.5217 42.681L46.5907 45.047ZM50.6929 47V42.03H52.3379C52.7346 42.03 53.0939 42.0883 53.4159 42.205C53.7426 42.3217 54.0202 42.4897 54.2489 42.709C54.4822 42.9237 54.6596 43.1827 54.7809 43.486C54.9069 43.7893 54.9699 44.1277 54.9699 44.501C54.9699 44.879 54.9069 45.222 54.7809 45.53C54.6596 45.8333 54.4822 46.0947 54.2489 46.314C54.0202 46.5333 53.7449 46.7037 53.4229 46.825C53.1009 46.9417 52.7416 47 52.3449 47H50.6929ZM51.2809 46.461H52.3239C52.6366 46.461 52.9189 46.4167 53.1709 46.328C53.4229 46.2347 53.6376 46.104 53.8149 45.936C53.9922 45.7633 54.1276 45.558 54.2209 45.32C54.3189 45.082 54.3679 44.8137 54.3679 44.515C54.3679 44.2163 54.3189 43.948 54.2209 43.71C54.1276 43.472 53.9899 43.269 53.8079 43.101C53.6306 42.9283 53.4159 42.7977 53.1639 42.709C52.9166 42.6157 52.6366 42.569 52.3239 42.569H51.2809V46.461ZM59.8696 47.14C59.529 47.14 59.214 47.077 58.9246 46.951C58.64 46.8203 58.3903 46.6407 58.1756 46.412C57.9656 46.1787 57.8023 45.9057 57.6856 45.593C57.569 45.2757 57.5106 44.9303 57.5106 44.557C57.5106 44.2537 57.548 43.969 57.6226 43.703C57.702 43.4323 57.8116 43.1873 57.9516 42.968C58.0963 42.744 58.2643 42.5527 58.4556 42.394C58.6516 42.2307 58.8686 42.107 59.1066 42.023C59.3446 41.9343 59.5966 41.89 59.8626 41.89C60.1613 41.89 60.439 41.9413 60.6956 42.044C60.957 42.1467 61.1856 42.2913 61.3816 42.478C61.5823 42.6647 61.7363 42.8887 61.8436 43.15L61.3046 43.353C61.16 43.059 60.9616 42.8327 60.7096 42.674C60.4623 42.5107 60.1823 42.429 59.8696 42.429C59.6176 42.429 59.3843 42.4827 59.1696 42.59C58.9596 42.6973 58.7753 42.8467 58.6166 43.038C58.458 43.2293 58.3343 43.4533 58.2456 43.71C58.157 43.9667 58.1126 44.2467 58.1126 44.55C58.1126 44.8487 58.1546 45.124 58.2386 45.376C58.3273 45.6233 58.451 45.8403 58.6096 46.027C58.7683 46.209 58.955 46.3513 59.1696 46.454C59.389 46.552 59.627 46.601 59.8836 46.601C60.2056 46.601 60.4903 46.5217 60.7376 46.363C60.9896 46.2043 61.195 45.9757 61.3536 45.677L61.8926 45.88C61.7806 46.1413 61.6243 46.3677 61.4236 46.559C61.223 46.7457 60.9896 46.8903 60.7236 46.993C60.4576 47.091 60.173 47.14 59.8696 47.14ZM62.8844 47V42.03H63.4724V44.144H66.2304V42.03H66.8184V47H66.2304V44.683H63.4724V47H62.8844ZM68.0488 47V42.03H68.6368V47H68.0488ZM72.0474 47.14C71.7068 47.14 71.3918 47.077 71.1024 46.951C70.8178 46.8203 70.5681 46.6407 70.3534 46.412C70.1434 46.1787 69.9801 45.9057 69.8634 45.593C69.7468 45.2757 69.6884 44.9303 69.6884 44.557C69.6884 44.2537 69.7258 43.969 69.8004 43.703C69.8798 43.4323 69.9894 43.1873 70.1294 42.968C70.2741 42.744 70.4421 42.5527 70.6334 42.394C70.8294 42.2307 71.0464 42.107 71.2844 42.023C71.5224 41.9343 71.7744 41.89 72.0404 41.89C72.3391 41.89 72.6168 41.9413 72.8734 42.044C73.1348 42.1467 73.3634 42.2913 73.5594 42.478C73.7601 42.6647 73.9141 42.8887 74.0214 43.15L73.4824 43.353C73.3378 43.059 73.1394 42.8327 72.8874 42.674C72.6401 42.5107 72.3601 42.429 72.0474 42.429C71.7954 42.429 71.5621 42.4827 71.3474 42.59C71.1374 42.6973 70.9531 42.8467 70.7944 43.038C70.6358 43.2293 70.5121 43.4533 70.4234 43.71C70.3348 43.9667 70.2904 44.2467 70.2904 44.55C70.2904 44.8487 70.3324 45.124 70.4164 45.376C70.5051 45.6233 70.6288 45.8403 70.7874 46.027C70.9461 46.209 71.1328 46.3513 71.3474 46.454C71.5668 46.552 71.8048 46.601 72.0614 46.601C72.3834 46.601 72.6681 46.5217 72.9154 46.363C73.1674 46.2043 73.3728 45.9757 73.5314 45.677L74.0704 45.88C73.9584 46.1413 73.8021 46.3677 73.6014 46.559C73.4008 46.7457 73.1674 46.8903 72.9014 46.993C72.6354 47.091 72.3508 47.14 72.0474 47.14ZM75.0622 47V42.03H75.6502V44.277L77.9322 42.03H78.7022L76.2942 44.375L78.9542 47H78.1072L75.6502 44.557V47H75.0622ZM79.7344 47V42.03H82.5974V42.555H80.3224V44.151H82.4014V44.683H80.3224V46.468H82.6674V47H79.7344ZM83.7982 47V42.03H84.3162L87.0882 46.013V42.03H87.6622V47H87.1442L84.3722 43.017V47H83.7982Z" fill="#BDBDBD" fill-opacity="0.6"/>
<path d="M74.997 13.0937C74.997 12.0004 73.7258 12.0004 73.7258 12.0004C73.7258 12.0004 74.997 12.0004 74.997 10.6384C74.997 9.27645 73.4681 9.54885 73.4681 9.54885C73.5339 9.08187 73.4415 8.60507 73.2077 8.2047C72.974 7.80433 72.6142 7.50682 72.1934 7.36598C70.682 6.82119 70.682 15.2728 65.0714 16.9109C59.4609 18.549 54.8917 14.1832 55.1459 9.54885C55.1459 9.54885 56.6713 9.27272 56.6713 7.91076C56.6713 7.91076 56.1628 6.5488 54.6374 7.36598C54.6374 7.36598 55.4001 6.00028 54.3797 5.18311C53.3593 4.36593 52.6001 6.5488 52.6001 6.5488C52.6001 6.5488 51.8374 4.62713 50.5627 5.4555C50.5627 5.4555 49.8 6.00028 50.3085 7.09358C50.3085 7.09358 48.5289 6.82119 48.5289 7.91076C48.5289 7.91076 48.0169 9.00033 49.8 9.54885C49.8 9.54885 50.5627 10.366 48.7831 10.6384L47 11.4556L49.7861 13.0937C49.7861 13.0937 48.003 22.6386 52.3319 27.273C52.3319 27.273 55.8947 31.0902 58.4405 30.5454C58.4405 30.5454 58.1862 33.5306 60.4743 33.8179V36.0008C59.5155 35.8722 58.5429 36.0624 57.6882 36.5455C57.6882 36.5455 57.4305 36.8179 57.9425 37.0903C57.9425 37.0903 60.4848 36.8179 60.4848 36.5455H61.5052C61.5052 36.5455 62.7764 37.0903 63.5391 36.8179C63.5391 36.8179 64.051 36.5455 63.0306 36.2732C62.6033 35.8942 62.0593 35.6999 61.5052 35.7284V33.8179C61.5052 33.8179 62.7764 34.0903 63.2848 32.4559C63.4285 31.8297 63.5137 31.1897 63.5391 30.5454C65.1114 30.5313 66.6559 30.0991 68.0339 29.2876C69.4119 28.4762 70.5803 27.3108 71.4342 25.8961C71.4342 25.8961 72.9631 24.5454 73.4681 19.3662C73.4681 19.3662 74.9935 19.3662 74.9935 18.0005C75.0105 17.8465 74.9942 17.6903 74.9458 17.5441C74.8975 17.398 74.8184 17.2656 74.7147 17.1574C74.611 17.0492 74.4855 16.968 74.3478 16.9201C74.2102 16.8722 74.0641 16.8588 73.9208 16.8811C74.2269 16.8488 74.5095 16.691 74.7094 16.4406C74.9093 16.1903 75.0111 15.8667 74.9935 15.5377C74.9935 15.5377 74.9935 14.4482 73.7223 14.4482C73.7258 14.4556 74.997 14.1832 74.997 13.0937Z" fill="#BDBDBD" fill-opacity="0.6"/>
<path d="M51.4329 8.38843L52.9329 9.88845" stroke="white" stroke-width="0.5" stroke-miterlimit="10"/>
<path d="M51.4329 9.88845L52.9329 8.38843" stroke="white" stroke-width="0.5" stroke-miterlimit="10"/>
</svg>
