<svg width="84" height="33" viewBox="0 0 84 33" fill="none" xmlns="http://www.w3.org/2000/svg">
<g clip-path="url(#clip0)">
<g filter="url(#filter0_d)">
<rect y="2" width="84" height="27" rx="4" fill="white"/>
</g>
<path d="M35.0454 20V11.48H37.8654C38.5454 11.48 39.1614 11.58 39.7134 11.78C40.2734 11.98 40.7494 12.268 41.1414 12.644C41.5414 13.012 41.8454 13.456 42.0534 13.976C42.2694 14.496 42.3774 15.076 42.3774 15.716C42.3774 16.364 42.2694 16.952 42.0534 17.48C41.8454 18 41.5414 18.448 41.1414 18.824C40.7494 19.2 40.2774 19.492 39.7254 19.7C39.1734 19.9 38.5574 20 37.8774 20H35.0454ZM36.0534 19.076H37.8414C38.3774 19.076 38.8614 19 39.2934 18.848C39.7254 18.688 40.0934 18.464 40.3974 18.176C40.7014 17.88 40.9334 17.528 41.0934 17.12C41.2614 16.712 41.3454 16.252 41.3454 15.74C41.3454 15.228 41.2614 14.768 41.0934 14.36C40.9334 13.952 40.6974 13.604 40.3854 13.316C40.0814 13.02 39.7134 12.796 39.2814 12.644C38.8574 12.484 38.3774 12.404 37.8414 12.404H36.0534V19.076ZM47.2519 20.18C46.7959 20.18 46.3759 20.1 45.9919 19.94C45.6159 19.78 45.2879 19.556 45.0079 19.268C44.7279 18.972 44.5119 18.628 44.3599 18.236C44.2079 17.836 44.1319 17.396 44.1319 16.916C44.1319 16.444 44.2039 16.012 44.3479 15.62C44.4999 15.22 44.7079 14.872 44.9719 14.576C45.2439 14.28 45.5599 14.052 45.9199 13.892C46.2799 13.724 46.6719 13.64 47.0959 13.64C47.5039 13.64 47.8799 13.716 48.2239 13.868C48.5759 14.02 48.8799 14.232 49.1359 14.504C49.3919 14.776 49.5879 15.1 49.7239 15.476C49.8679 15.852 49.9399 16.26 49.9399 16.7V17.096H45.1279C45.1599 17.544 45.2639 17.936 45.4399 18.272C45.6239 18.608 45.8679 18.868 46.1719 19.052C46.4759 19.236 46.8279 19.328 47.2279 19.328C47.6199 19.328 47.9599 19.248 48.2479 19.088C48.5439 18.92 48.7959 18.676 49.0039 18.356L49.8199 18.728C49.6599 19.032 49.4519 19.292 49.1959 19.508C48.9399 19.724 48.6439 19.888 48.3079 20C47.9799 20.12 47.6279 20.18 47.2519 20.18ZM47.0959 14.456C46.7679 14.456 46.4679 14.536 46.1959 14.696C45.9319 14.856 45.7079 15.08 45.5239 15.368C45.3479 15.648 45.2319 15.976 45.1759 16.352H48.9319C48.8999 15.976 48.7999 15.648 48.6319 15.368C48.4639 15.08 48.2479 14.856 47.9839 14.696C47.7199 14.536 47.4239 14.456 47.0959 14.456ZM51.9111 20V11.096H52.8711V20H51.9111ZM57.9558 20.18C57.4998 20.18 57.0798 20.1 56.6958 19.94C56.3198 19.78 55.9918 19.556 55.7118 19.268C55.4318 18.972 55.2158 18.628 55.0638 18.236C54.9118 17.836 54.8358 17.396 54.8358 16.916C54.8358 16.444 54.9078 16.012 55.0518 15.62C55.2038 15.22 55.4118 14.872 55.6758 14.576C55.9478 14.28 56.2638 14.052 56.6238 13.892C56.9838 13.724 57.3758 13.64 57.7998 13.64C58.2078 13.64 58.5838 13.716 58.9278 13.868C59.2798 14.02 59.5838 14.232 59.8398 14.504C60.0958 14.776 60.2918 15.1 60.4278 15.476C60.5718 15.852 60.6438 16.26 60.6438 16.7V17.096H55.8318C55.8638 17.544 55.9678 17.936 56.1438 18.272C56.3278 18.608 56.5718 18.868 56.8758 19.052C57.1798 19.236 57.5318 19.328 57.9318 19.328C58.3238 19.328 58.6638 19.248 58.9518 19.088C59.2478 18.92 59.4998 18.676 59.7078 18.356L60.5238 18.728C60.3638 19.032 60.1558 19.292 59.8998 19.508C59.6438 19.724 59.3478 19.888 59.0118 20C58.6838 20.12 58.3318 20.18 57.9558 20.18ZM57.7998 14.456C57.4718 14.456 57.1718 14.536 56.8998 14.696C56.6358 14.856 56.4118 15.08 56.2278 15.368C56.0518 15.648 55.9358 15.976 55.8798 16.352H59.6358C59.6038 15.976 59.5038 15.648 59.3358 15.368C59.1678 15.08 58.9518 14.856 58.6878 14.696C58.4238 14.536 58.1278 14.456 57.7998 14.456ZM64.9076 20.18C64.5316 20.18 64.2076 20.104 63.9356 19.952C63.6636 19.8 63.4516 19.576 63.2996 19.28C63.1556 18.984 63.0836 18.624 63.0836 18.2V14.624H61.9436V13.808H63.0836V11.732H64.0436V13.808H65.9876V14.624H64.0436V18.152C64.0436 18.52 64.1196 18.808 64.2716 19.016C64.4316 19.216 64.6716 19.316 64.9916 19.316C65.1596 19.316 65.3276 19.292 65.4956 19.244C65.6716 19.188 65.8276 19.116 65.9636 19.028L66.2516 19.772C66.0836 19.892 65.8876 19.988 65.6636 20.06C65.4396 20.14 65.1876 20.18 64.9076 20.18ZM70.7808 20.18C70.3248 20.18 69.9048 20.1 69.5208 19.94C69.1448 19.78 68.8168 19.556 68.5368 19.268C68.2568 18.972 68.0408 18.628 67.8888 18.236C67.7368 17.836 67.6608 17.396 67.6608 16.916C67.6608 16.444 67.7328 16.012 67.8768 15.62C68.0288 15.22 68.2368 14.872 68.5008 14.576C68.7728 14.28 69.0888 14.052 69.4488 13.892C69.8088 13.724 70.2008 13.64 70.6248 13.64C71.0328 13.64 71.4088 13.716 71.7528 13.868C72.1048 14.02 72.4088 14.232 72.6648 14.504C72.9208 14.776 73.1168 15.1 73.2528 15.476C73.3968 15.852 73.4688 16.26 73.4688 16.7V17.096H68.6568C68.6888 17.544 68.7928 17.936 68.9688 18.272C69.1528 18.608 69.3968 18.868 69.7008 19.052C70.0048 19.236 70.3568 19.328 70.7568 19.328C71.1488 19.328 71.4888 19.248 71.7768 19.088C72.0728 18.92 72.3248 18.676 72.5328 18.356L73.3488 18.728C73.1888 19.032 72.9808 19.292 72.7248 19.508C72.4688 19.724 72.1728 19.888 71.8368 20C71.5088 20.12 71.1568 20.18 70.7808 20.18ZM70.6248 14.456C70.2968 14.456 69.9968 14.536 69.7248 14.696C69.4608 14.856 69.2368 15.08 69.0528 15.368C68.8768 15.648 68.7608 15.976 68.7048 16.352H72.4608C72.4288 15.976 72.3288 15.648 72.1608 15.368C71.9928 15.08 71.7768 14.856 71.5128 14.696C71.2488 14.536 70.9528 14.456 70.6248 14.456Z" fill="black"/>
<path d="M14 9L14.7639 22.6364C14.8002 23.4243 15.3139 24 15.9861 24H23.0139C23.6888 24 24.193 23.4243 24.2361 22.6364L25 9" stroke="black" stroke-linecap="round" stroke-linejoin="round"/>
<path d="M12 9H27" stroke="black" stroke-miterlimit="10" stroke-linecap="round"/>
<path d="M17 9V7.125C16.9996 6.97714 17.0236 6.83066 17.0706 6.69397C17.1176 6.55729 17.1867 6.4331 17.2738 6.32854C17.3609 6.22399 17.4644 6.14114 17.5783 6.08476C17.6922 6.02837 17.8143 5.99957 17.9375 6H21.0625C21.1857 5.99957 21.3078 6.02837 21.4217 6.08476C21.5356 6.14114 21.6391 6.22399 21.7262 6.32854C21.8133 6.4331 21.8824 6.55729 21.9294 6.69397C21.9764 6.83066 22.0004 6.97714 22 7.125V9" stroke="black" stroke-linecap="round" stroke-linejoin="round"/>
<path d="M19 13V21" stroke="black" stroke-linecap="round" stroke-linejoin="round"/>
<path d="M16 13L17 21" stroke="black" stroke-linecap="round" stroke-linejoin="round"/>
<path d="M22 13V21" stroke="black" stroke-linecap="round" stroke-linejoin="round"/>
</g>
<defs>
<filter id="filter0_d" x="-5" y="-2" width="94" height="37" filterUnits="userSpaceOnUse" color-interpolation-filters="sRGB">
<feFlood flood-opacity="0" result="BackgroundImageFix"/>
<feColorMatrix in="SourceAlpha" type="matrix" values="0 0 0 0 0 0 0 0 0 0 0 0 0 0 0 0 0 0 127 0"/>
<feOffset dy="1"/>
<feGaussianBlur stdDeviation="2.5"/>
<feColorMatrix type="matrix" values="0 0 0 0 0 0 0 0 0 0 0 0 0 0 0 0 0 0 0.1 0"/>
<feBlend mode="normal" in2="BackgroundImageFix" result="effect1_dropShadow"/>
<feBlend mode="normal" in="SourceGraphic" in2="effect1_dropShadow" result="shape"/>
</filter>
<clipPath id="clip0">
<rect width="84" height="33" fill="white"/>
</clipPath>
</defs>
</svg>
