<svg width="86" height="40" viewBox="0 0 86 40" fill="none" xmlns="http://www.w3.org/2000/svg">
<g filter="url(#filter0_dd)">
<rect x="8" y="4" width="70" height="24" rx="4" fill="#FECE47"/>
</g>
<path d="M43.0581 21V11.06H49.0781V12.53H44.7381V15.134H48.6581V16.604H44.7381V19.53H49.2181V21H43.0581ZM53.8058 21.21C53.3204 21.21 52.8678 21.112 52.4478 20.916C52.0371 20.72 51.6778 20.4493 51.3698 20.104C51.0618 19.7587 50.8191 19.3527 50.6418 18.886C50.4738 18.4193 50.3898 17.9153 50.3898 17.374C50.3898 16.8233 50.4784 16.31 50.6558 15.834C50.8331 15.358 51.0804 14.9427 51.3978 14.588C51.7151 14.2333 52.0838 13.958 52.5038 13.762C52.9331 13.566 53.3951 13.468 53.8898 13.468C54.3751 13.468 54.8184 13.5707 55.2198 13.776C55.6211 13.9813 55.9524 14.2707 56.2138 14.644V10.584H57.8238V21H56.3538L56.2838 19.824C56.0224 20.2533 55.6771 20.594 55.2478 20.846C54.8184 21.0887 54.3378 21.21 53.8058 21.21ZM54.1418 19.754C54.5431 19.754 54.9024 19.6513 55.2198 19.446C55.5371 19.2313 55.7844 18.942 55.9618 18.578C56.1484 18.214 56.2418 17.8033 56.2418 17.346C56.2418 16.8793 56.1484 16.464 55.9618 16.1C55.7844 15.736 55.5371 15.4513 55.2198 15.246C54.9024 15.0313 54.5431 14.924 54.1418 14.924C53.7404 14.924 53.3811 15.0313 53.0638 15.246C52.7464 15.4513 52.4944 15.736 52.3078 16.1C52.1304 16.464 52.0418 16.8793 52.0418 17.346C52.0418 17.8033 52.1304 18.214 52.3078 18.578C52.4944 18.942 52.7464 19.2313 53.0638 19.446C53.3811 19.6513 53.7404 19.754 54.1418 19.754ZM61.3355 11.634C61.3355 11.8113 61.2888 11.9747 61.1955 12.124C61.1115 12.2733 60.9948 12.3947 60.8455 12.488C60.6961 12.572 60.5328 12.614 60.3555 12.614C60.1781 12.614 60.0148 12.572 59.8655 12.488C59.7161 12.3947 59.5948 12.2733 59.5015 12.124C59.4175 11.9747 59.3755 11.8113 59.3755 11.634C59.3755 11.4567 59.4175 11.2933 59.5015 11.144C59.5948 10.9947 59.7161 10.878 59.8655 10.794C60.0148 10.7007 60.1781 10.654 60.3555 10.654C60.5328 10.654 60.6961 10.7007 60.8455 10.794C60.9948 10.878 61.1115 10.9947 61.1955 11.144C61.2888 11.2933 61.3355 11.4567 61.3355 11.634ZM59.5575 21V13.678H61.1675V21H59.5575ZM65.9311 21.21C65.1937 21.21 64.6151 21 64.1951 20.58C63.7751 20.1507 63.5651 19.5393 63.5651 18.746V14.98H62.2771V13.678H63.5651V11.2H65.1751V13.678H67.3031V14.98H65.1751V18.578C65.1751 18.97 65.2544 19.2733 65.4131 19.488C65.5811 19.6933 65.8237 19.796 66.1411 19.796C66.3091 19.796 66.4911 19.7727 66.6871 19.726C66.8831 19.67 67.0651 19.5953 67.2331 19.502L67.5971 20.72C67.3824 20.8693 67.1304 20.986 66.8411 21.07C66.5611 21.1633 66.2577 21.21 65.9311 21.21Z" fill="#222222"/>
<g clip-path="url(#clip0)">
<path d="M22.6489 21.9987L19.0198 18.3696L27.7973 9.59206L31.4264 13.2211L22.6489 21.9987ZM18.6806 19.0089L22.0096 22.3379L17.0184 24L18.6806 19.0089ZM32.5426 12.1097L31.9132 12.7392L28.2793 9.10531L28.9087 8.47584C29.5428 7.84139 30.5711 7.84139 31.2051 8.47584L32.5426 9.81334C33.1721 10.4495 33.1721 11.4737 32.5426 12.1097Z" fill="#222222"/>
</g>
<defs>
<filter id="filter0_dd" x="0" y="0" width="86" height="40" filterUnits="userSpaceOnUse" color-interpolation-filters="sRGB">
<feFlood flood-opacity="0" result="BackgroundImageFix"/>
<feColorMatrix in="SourceAlpha" type="matrix" values="0 0 0 0 0 0 0 0 0 0 0 0 0 0 0 0 0 0 127 0"/>
<feOffset dy="4"/>
<feGaussianBlur stdDeviation="4"/>
<feColorMatrix type="matrix" values="0 0 0 0 0 0 0 0 0 0 0 0 0 0 0 0 0 0 0.04 0"/>
<feBlend mode="normal" in2="BackgroundImageFix" result="effect1_dropShadow"/>
<feColorMatrix in="SourceAlpha" type="matrix" values="0 0 0 0 0 0 0 0 0 0 0 0 0 0 0 0 0 0 127 0"/>
<feOffset/>
<feGaussianBlur stdDeviation="1"/>
<feColorMatrix type="matrix" values="0 0 0 0 0 0 0 0 0 0 0 0 0 0 0 0 0 0 0.02 0"/>
<feBlend mode="normal" in2="effect1_dropShadow" result="effect2_dropShadow"/>
<feBlend mode="normal" in="SourceGraphic" in2="effect2_dropShadow" result="shape"/>
</filter>
<clipPath id="clip0">
<rect x="17" y="8" width="16" height="16" fill="white"/>
</clipPath>
</defs>
</svg>
