<svg width="220" height="43" viewBox="0 0 220 43" fill="none" xmlns="http://www.w3.org/2000/svg">
<rect x="0.5" y="0.5" width="219" height="42" rx="7.5" fill="#FECE47" stroke="#FECE47"/>
<path d="M57.6591 25.0527V13.6927H64.5391V15.3727H59.5791V18.3487H64.0591V20.0287H59.5791V23.3727H64.6991V25.0527H57.6591ZM65.8568 25.0527L69.0408 20.6367L66.2088 16.6847H68.2888L70.0808 19.4847L71.9208 16.6847H73.9208L71.0888 20.6367L74.2728 25.0527H72.1128L70.0488 21.8527L67.9528 25.0527H65.8568ZM75.4842 28.2207V16.6847H77.1642L77.2442 18.0287C77.5429 17.5381 77.9375 17.1541 78.4282 16.8767C78.9189 16.5887 79.4682 16.4447 80.0762 16.4447C80.6309 16.4447 81.1429 16.5567 81.6122 16.7807C82.0922 17.0047 82.5082 17.3141 82.8602 17.7087C83.2122 18.1034 83.4842 18.5674 83.6762 19.1007C83.8789 19.6341 83.9802 20.2101 83.9802 20.8287C83.9802 21.4581 83.8789 22.0447 83.6762 22.5887C83.4735 23.1327 83.1909 23.6074 82.8282 24.0127C82.4655 24.4181 82.0389 24.7327 81.5482 24.9567C81.0682 25.1807 80.5455 25.2927 79.9802 25.2927C79.4255 25.2927 78.9189 25.1754 78.4602 24.9407C78.0015 24.7061 77.6229 24.3754 77.3242 23.9487V28.2207H75.4842ZM79.6922 23.6287C80.1509 23.6287 80.5615 23.5114 80.9242 23.2767C81.2869 23.0314 81.5695 22.7007 81.7722 22.2847C81.9855 21.8687 82.0922 21.3941 82.0922 20.8607C82.0922 20.3274 81.9855 19.8581 81.7722 19.4527C81.5695 19.0367 81.2869 18.7114 80.9242 18.4767C80.5615 18.2314 80.1509 18.1087 79.6922 18.1087C79.2335 18.1087 78.8229 18.2314 78.4602 18.4767C78.0975 18.7114 77.8095 19.0367 77.5962 19.4527C77.3935 19.8581 77.2922 20.3274 77.2922 20.8607C77.2922 21.3941 77.3935 21.8687 77.5962 22.2847C77.8095 22.7007 78.0975 23.0314 78.4602 23.2767C78.8229 23.5114 79.2335 23.6287 79.6922 23.6287ZM89.5597 25.2927C88.9517 25.2927 88.3864 25.1861 87.8637 24.9727C87.3517 24.7487 86.9037 24.4394 86.5197 24.0447C86.1357 23.6394 85.837 23.1701 85.6237 22.6367C85.4104 22.0927 85.3037 21.5007 85.3037 20.8607C85.3037 20.2314 85.4104 19.6501 85.6237 19.1167C85.837 18.5727 86.1357 18.1034 86.5197 17.7087C86.9144 17.3034 87.373 16.9941 87.8957 16.7807C88.429 16.5567 89.005 16.4447 89.6237 16.4447C90.2317 16.4447 90.7917 16.5567 91.3037 16.7807C91.8264 16.9941 92.2797 17.3034 92.6637 17.7087C93.0477 18.1034 93.3464 18.5674 93.5597 19.1007C93.773 19.6341 93.8797 20.2207 93.8797 20.8607C93.8797 21.5007 93.773 22.0927 93.5597 22.6367C93.3464 23.1701 93.0424 23.6394 92.6477 24.0447C92.2637 24.4394 91.805 24.7487 91.2717 24.9727C90.749 25.1861 90.1784 25.2927 89.5597 25.2927ZM89.5917 23.6287C90.0504 23.6287 90.461 23.5114 90.8237 23.2767C91.1864 23.0314 91.469 22.7007 91.6717 22.2847C91.885 21.8687 91.9917 21.3941 91.9917 20.8607C91.9917 20.3274 91.885 19.8581 91.6717 19.4527C91.469 19.0367 91.1864 18.7114 90.8237 18.4767C90.461 18.2314 90.0504 18.1087 89.5917 18.1087C89.133 18.1087 88.7224 18.2314 88.3597 18.4767C87.997 18.7114 87.709 19.0367 87.4957 19.4527C87.293 19.8581 87.1917 20.3274 87.1917 20.8607C87.1917 21.3941 87.293 21.8687 87.4957 22.2847C87.709 22.7007 87.997 23.0314 88.3597 23.2767C88.7224 23.5114 89.133 23.6287 89.5917 23.6287ZM95.4998 25.0527V16.6847H97.1798L97.2598 18.0607C97.4731 17.5914 97.7665 17.2287 98.1398 16.9727C98.5238 16.7061 98.9718 16.5727 99.4838 16.5727C99.6438 16.5727 99.7985 16.5834 99.9478 16.6047C100.097 16.6261 100.23 16.6634 100.348 16.7167L100.14 18.5087C100.022 18.4661 99.8998 18.4394 99.7718 18.4287C99.6438 18.4074 99.5158 18.3967 99.3878 18.3967C98.7478 18.3967 98.2465 18.6101 97.8838 19.0367C97.5211 19.4634 97.3398 20.0554 97.3398 20.8127V25.0527H95.4998ZM105.409 25.2927C104.566 25.2927 103.905 25.0527 103.425 24.5727C102.945 24.0821 102.705 23.3834 102.705 22.4767V18.1727H101.233V16.6847H102.705V13.8527H104.545V16.6847H106.977V18.1727H104.545V22.2847C104.545 22.7327 104.636 23.0794 104.817 23.3247C105.009 23.5594 105.286 23.6767 105.649 23.6767C105.841 23.6767 106.049 23.6501 106.273 23.5967C106.497 23.5327 106.705 23.4474 106.897 23.3407L107.313 24.7327C107.068 24.9034 106.78 25.0367 106.449 25.1327C106.129 25.2394 105.782 25.2927 105.409 25.2927ZM112.3 25.0527V13.6927H115.724C116.63 13.6927 117.409 13.8367 118.06 14.1247C118.721 14.4127 119.228 14.8234 119.58 15.3567C119.932 15.8901 120.108 16.5247 120.108 17.2607C120.108 17.7194 120.022 18.1514 119.852 18.5567C119.692 18.9514 119.457 19.3087 119.148 19.6287C118.849 19.9487 118.486 20.2101 118.06 20.4127L120.7 25.0527H118.54L116.348 20.9247C116.23 20.9354 116.097 20.9461 115.948 20.9567C115.809 20.9567 115.665 20.9567 115.516 20.9567C115.142 20.9567 114.71 20.9194 114.22 20.8447V25.0527H112.3ZM114.22 15.3887V19.1487C114.444 19.1914 114.673 19.2234 114.908 19.2447C115.153 19.2554 115.393 19.2607 115.628 19.2607C116.417 19.2607 117.03 19.0901 117.468 18.7487C117.905 18.4074 118.124 17.9327 118.124 17.3247C118.124 16.7167 117.91 16.2421 117.484 15.9007C117.057 15.5594 116.46 15.3887 115.692 15.3887H114.22ZM125.763 25.2927C125.144 25.2927 124.573 25.1861 124.051 24.9727C123.539 24.7487 123.091 24.4394 122.707 24.0447C122.323 23.6501 122.024 23.1861 121.811 22.6527C121.608 22.1087 121.507 21.5114 121.507 20.8607C121.507 20.2314 121.608 19.6501 121.811 19.1167C122.024 18.5834 122.312 18.1194 122.675 17.7247C123.048 17.3194 123.485 17.0047 123.987 16.7807C124.488 16.5567 125.032 16.4447 125.619 16.4447C126.205 16.4447 126.739 16.5514 127.219 16.7647C127.709 16.9674 128.131 17.2607 128.483 17.6447C128.845 18.0287 129.123 18.4874 129.315 19.0207C129.507 19.5434 129.603 20.1247 129.603 20.7647V21.3087H123.411C123.464 21.7994 123.592 22.2261 123.795 22.5887C124.008 22.9407 124.28 23.2127 124.611 23.4047C124.941 23.5967 125.325 23.6927 125.763 23.6927C126.637 23.6927 127.32 23.3034 127.811 22.5247L129.427 23.1487C129.235 23.5861 128.952 23.9701 128.579 24.3007C128.216 24.6207 127.789 24.8661 127.299 25.0367C126.819 25.2074 126.307 25.2927 125.763 25.2927ZM125.619 17.9327C125.245 17.9327 124.909 18.0181 124.611 18.1887C124.323 18.3594 124.077 18.5994 123.875 18.9087C123.672 19.2181 123.533 19.5807 123.459 19.9967H127.683C127.619 19.5807 127.496 19.2181 127.315 18.9087C127.133 18.5994 126.893 18.3594 126.595 18.1887C126.307 18.0181 125.981 17.9327 125.619 17.9327ZM131.172 28.2207V16.6847H132.852L132.932 18.0287C133.23 17.5381 133.625 17.1541 134.116 16.8767C134.606 16.5887 135.156 16.4447 135.764 16.4447C136.318 16.4447 136.83 16.5567 137.3 16.7807C137.78 17.0047 138.196 17.3141 138.548 17.7087C138.9 18.1034 139.172 18.5674 139.364 19.1007C139.566 19.6341 139.668 20.2101 139.668 20.8287C139.668 21.4581 139.566 22.0447 139.364 22.5887C139.161 23.1327 138.878 23.6074 138.516 24.0127C138.153 24.4181 137.726 24.7327 137.236 24.9567C136.756 25.1807 136.233 25.2927 135.668 25.2927C135.113 25.2927 134.606 25.1754 134.148 24.9407C133.689 24.7061 133.31 24.3754 133.012 23.9487V28.2207H131.172ZM135.38 23.6287C135.838 23.6287 136.249 23.5114 136.612 23.2767C136.974 23.0314 137.257 22.7007 137.46 22.2847C137.673 21.8687 137.78 21.3941 137.78 20.8607C137.78 20.3274 137.673 19.8581 137.46 19.4527C137.257 19.0367 136.974 18.7114 136.612 18.4767C136.249 18.2314 135.838 18.1087 135.38 18.1087C134.921 18.1087 134.51 18.2314 134.148 18.4767C133.785 18.7114 133.497 19.0367 133.284 19.4527C133.081 19.8581 132.98 20.3274 132.98 20.8607C132.98 21.3941 133.081 21.8687 133.284 22.2847C133.497 22.7007 133.785 23.0314 134.148 23.2767C134.51 23.5114 134.921 23.6287 135.38 23.6287ZM145.247 25.2927C144.639 25.2927 144.074 25.1861 143.551 24.9727C143.039 24.7487 142.591 24.4394 142.207 24.0447C141.823 23.6394 141.525 23.1701 141.311 22.6367C141.098 22.0927 140.991 21.5007 140.991 20.8607C140.991 20.2314 141.098 19.6501 141.311 19.1167C141.525 18.5727 141.823 18.1034 142.207 17.7087C142.602 17.3034 143.061 16.9941 143.583 16.7807C144.117 16.5567 144.693 16.4447 145.311 16.4447C145.919 16.4447 146.479 16.5567 146.991 16.7807C147.514 16.9941 147.967 17.3034 148.351 17.7087C148.735 18.1034 149.034 18.5674 149.247 19.1007C149.461 19.6341 149.567 20.2207 149.567 20.8607C149.567 21.5007 149.461 22.0927 149.247 22.6367C149.034 23.1701 148.73 23.6394 148.335 24.0447C147.951 24.4394 147.493 24.7487 146.959 24.9727C146.437 25.1861 145.866 25.2927 145.247 25.2927ZM145.279 23.6287C145.738 23.6287 146.149 23.5114 146.511 23.2767C146.874 23.0314 147.157 22.7007 147.359 22.2847C147.573 21.8687 147.679 21.3941 147.679 20.8607C147.679 20.3274 147.573 19.8581 147.359 19.4527C147.157 19.0367 146.874 18.7114 146.511 18.4767C146.149 18.2314 145.738 18.1087 145.279 18.1087C144.821 18.1087 144.41 18.2314 144.047 18.4767C143.685 18.7114 143.397 19.0367 143.183 19.4527C142.981 19.8581 142.879 20.3274 142.879 20.8607C142.879 21.3941 142.981 21.8687 143.183 22.2847C143.397 22.7007 143.685 23.0314 144.047 23.2767C144.41 23.5114 144.821 23.6287 145.279 23.6287ZM151.187 25.0527V16.6847H152.867L152.947 18.0607C153.161 17.5914 153.454 17.2287 153.827 16.9727C154.211 16.7061 154.659 16.5727 155.171 16.5727C155.331 16.5727 155.486 16.5834 155.635 16.6047C155.785 16.6261 155.918 16.6634 156.035 16.7167L155.827 18.5087C155.71 18.4661 155.587 18.4394 155.459 18.4287C155.331 18.4074 155.203 18.3967 155.075 18.3967C154.435 18.3967 153.934 18.6101 153.571 19.0367C153.209 19.4634 153.027 20.0554 153.027 20.8127V25.0527H151.187ZM161.096 25.2927C160.254 25.2927 159.592 25.0527 159.112 24.5727C158.632 24.0821 158.392 23.3834 158.392 22.4767V18.1727H156.92V16.6847H158.392V13.8527H160.232V16.6847H162.664V18.1727H160.232V22.2847C160.232 22.7327 160.323 23.0794 160.504 23.3247C160.696 23.5594 160.974 23.6767 161.336 23.6767C161.528 23.6767 161.736 23.6501 161.96 23.5967C162.184 23.5327 162.392 23.4474 162.584 23.3407L163 24.7327C162.755 24.9034 162.467 25.0367 162.136 25.1327C161.816 25.2394 161.47 25.2927 161.096 25.2927Z" fill="white"/>
</svg>
