<svg width="24" height="24" viewBox="0 0 24 24" fill="none" xmlns="http://www.w3.org/2000/svg">
<g clip-path="url(#clip0)">
<path d="M23.402 19.0995L21.1391 18.3778C19.0872 17.7161 16.8381 17.9321 14.9541 18.964C13.1352 19.9617 10.869 19.9635 9.04671 18.964C7.16787 17.9338 4.9119 17.7229 2.86164 18.3761L0.597091 19.0995C0.146239 19.2435 -0.10233 19.7252 0.0416687 20.1777C0.185667 20.6269 0.665662 20.8703 1.11823 20.7332L3.38277 20.0097C4.98904 19.4955 6.75131 19.6618 8.22215 20.4675C9.38785 21.1069 10.6941 21.4257 12.0004 21.4257C13.3067 21.4257 14.6112 21.1069 15.7769 20.4675C17.246 19.6618 19.0083 19.492 20.6146 20.0097L22.8791 20.7332C23.3351 20.8737 23.8117 20.6269 23.9574 20.1777C24.1014 19.7252 23.8528 19.2435 23.402 19.0995Z" fill="black"/>
<path d="M23.402 13.9584L21.1392 13.2367C19.0872 12.5732 16.8381 12.791 14.9541 13.8229C13.1336 14.8207 10.869 14.8207 9.04677 13.8229C7.16622 12.791 4.91367 12.5767 2.86341 13.235L0.598861 13.9584C0.148009 14.1024 -0.10056 14.5841 0.0434387 15.0367C0.187437 15.4858 0.667432 15.7309 1.12 15.5921L3.38454 14.8687C4.9891 14.3509 6.75308 14.5207 8.2222 15.3246C9.38791 15.9641 10.6942 16.2829 12.0004 16.2829C13.3067 16.2829 14.6113 15.9641 15.777 15.3264C17.2461 14.5207 19.0084 14.3492 20.6146 14.8687L22.8792 15.5921C23.3352 15.7326 23.8117 15.4858 23.9575 15.0367C24.1015 14.5841 23.8529 14.1024 23.402 13.9584Z" fill="black"/>
<path d="M23.4037 8.8157L21.1374 8.09228C19.0923 7.43743 16.8346 7.65 14.9541 8.68027C13.1335 9.67969 10.869 9.6814 9.04672 8.68027C7.16788 7.64828 4.91362 7.43228 2.86164 8.09228L0.597099 8.8157C0.144533 8.9597 -0.104036 9.4414 0.0416766 9.89397C0.185675 10.3431 0.66567 10.59 1.11824 10.4477L3.38278 9.72254C4.99248 9.21169 6.75474 9.37626 8.22216 10.182C9.38786 10.8214 10.6941 11.1402 12.0004 11.1402C13.3067 11.1402 14.6112 10.8214 15.7769 10.1837C17.2461 9.37626 19.0083 9.20998 20.6146 9.72426L22.8808 10.4477C23.3403 10.5951 23.8151 10.3431 23.9591 9.89226C24.1031 9.4414 23.8546 8.9597 23.4037 8.8157Z" fill="black"/>
<path d="M23.4037 3.67288L21.1374 2.94946C19.0923 2.29118 16.8346 2.50718 14.9541 3.53745C13.1335 4.53687 10.869 4.53859 9.04672 3.53745C7.1696 2.50718 4.91534 2.29118 2.86164 2.94946L0.597099 3.67288C0.144533 3.81688 -0.104036 4.29859 0.0416766 4.75116C0.185675 5.20029 0.66567 5.44886 1.11824 5.30486L3.38278 4.57973C4.99248 4.06888 6.75474 4.23345 8.22216 5.03915C9.38786 5.67857 10.6941 5.99743 12.0004 5.99743C13.3067 5.99743 14.6112 5.67857 15.7769 5.04087C17.2461 4.23345 19.0083 4.06716 20.6146 4.58144L22.8808 5.30486C23.3403 5.45229 23.8151 5.19858 23.9591 4.74944C24.1031 4.29859 23.8546 3.81688 23.4037 3.67288Z" fill="black"/>
</g>
<defs>
<clipPath id="clip0">
<path d="M0 0H24V24H0V0Z" fill="white"/>
</clipPath>
</defs>
</svg>
