<svg width="220" height="43" viewBox="0 0 220 43" fill="none" xmlns="http://www.w3.org/2000/svg">
<rect x="0.5" y="0.5" width="219" height="42" rx="7.5" fill="#FECE47" stroke="#FECE47"/>
<path d="M74.2765 25.3727C73.6152 25.3727 72.9912 25.2767 72.4045 25.0847C71.8285 24.8927 71.3058 24.6207 70.8365 24.2687C70.3672 23.9061 69.9618 23.4794 69.6205 22.9887C69.2792 22.4981 69.0125 21.9541 68.8205 21.3567C68.6392 20.7487 68.5485 20.0981 68.5485 19.4047C68.5485 18.7114 68.6392 18.0607 68.8205 17.4527C69.0125 16.8447 69.2792 16.2901 69.6205 15.7887C69.9725 15.2874 70.3832 14.8607 70.8525 14.5087C71.3325 14.1461 71.8605 13.8687 72.4365 13.6767C73.0232 13.4741 73.6472 13.3727 74.3085 13.3727C75.0232 13.3727 75.6898 13.4901 76.3085 13.7247C76.9378 13.9594 77.4925 14.2954 77.9725 14.7327C78.4525 15.1701 78.8312 15.6874 79.1085 16.2847L77.2525 16.9087C76.9432 16.3541 76.5325 15.9274 76.0205 15.6287C75.5192 15.3194 74.9485 15.1647 74.3085 15.1647C73.7752 15.1647 73.2792 15.2714 72.8205 15.4847C72.3725 15.6981 71.9778 15.9967 71.6365 16.3807C71.2952 16.7541 71.0285 17.1967 70.8365 17.7087C70.6552 18.2207 70.5645 18.7754 70.5645 19.3727C70.5645 19.9807 70.6552 20.5461 70.8365 21.0687C71.0285 21.5807 71.2952 22.0234 71.6365 22.3967C71.9778 22.7701 72.3778 23.0634 72.8365 23.2767C73.3058 23.4794 73.8125 23.5807 74.3565 23.5807C74.9858 23.5807 75.5405 23.4581 76.0205 23.2127C76.5112 22.9567 76.9005 22.6047 77.1885 22.1567C77.4765 21.7087 77.6418 21.1861 77.6845 20.5887H74.5805V18.9567H79.6845V20.0287C79.6845 20.8181 79.5512 21.5381 79.2845 22.1887C79.0285 22.8394 78.6552 23.4047 78.1645 23.8847C77.6845 24.3541 77.1138 24.7221 76.4525 24.9887C75.8018 25.2447 75.0765 25.3727 74.2765 25.3727ZM85.3331 25.2927C84.7145 25.2927 84.1438 25.1861 83.6211 24.9727C83.1091 24.7487 82.6611 24.4394 82.2771 24.0447C81.8931 23.6501 81.5945 23.1861 81.3811 22.6527C81.1785 22.1087 81.0771 21.5114 81.0771 20.8607C81.0771 20.2314 81.1785 19.6501 81.3811 19.1167C81.5945 18.5834 81.8825 18.1194 82.2451 17.7247C82.6185 17.3194 83.0558 17.0047 83.5571 16.7807C84.0585 16.5567 84.6025 16.4447 85.1891 16.4447C85.7758 16.4447 86.3091 16.5514 86.7891 16.7647C87.2798 16.9674 87.7011 17.2607 88.0531 17.6447C88.4158 18.0287 88.6931 18.4874 88.8851 19.0207C89.0771 19.5434 89.1731 20.1247 89.1731 20.7647V21.3087H82.9811C83.0345 21.7994 83.1625 22.2261 83.3651 22.5887C83.5785 22.9407 83.8505 23.2127 84.1811 23.4047C84.5118 23.5967 84.8958 23.6927 85.3331 23.6927C86.2078 23.6927 86.8905 23.3034 87.3811 22.5247L88.9971 23.1487C88.8051 23.5861 88.5225 23.9701 88.1491 24.3007C87.7865 24.6207 87.3598 24.8661 86.8691 25.0367C86.3891 25.2074 85.8771 25.2927 85.3331 25.2927ZM85.1891 17.9327C84.8158 17.9327 84.4798 18.0181 84.1811 18.1887C83.8931 18.3594 83.6478 18.5994 83.4451 18.9087C83.2425 19.2181 83.1038 19.5807 83.0291 19.9967H87.2531C87.1891 19.5807 87.0665 19.2181 86.8851 18.9087C86.7038 18.5994 86.4638 18.3594 86.1651 18.1887C85.8771 18.0181 85.5518 17.9327 85.1891 17.9327ZM94.1355 25.2927C93.2928 25.2927 92.6315 25.0527 92.1515 24.5727C91.6715 24.0821 91.4315 23.3834 91.4315 22.4767V18.1727H89.9595V16.6847H91.4315V13.8527H93.2715V16.6847H95.7035V18.1727H93.2715V22.2847C93.2715 22.7327 93.3622 23.0794 93.5435 23.3247C93.7355 23.5594 94.0128 23.6767 94.3755 23.6767C94.5675 23.6767 94.7755 23.6501 94.9995 23.5967C95.2235 23.5327 95.4315 23.4474 95.6235 23.3407L96.0395 24.7327C95.7942 24.9034 95.5062 25.0367 95.1755 25.1327C94.8555 25.2394 94.5088 25.2927 94.1355 25.2927ZM101.026 25.0527V13.6927H104.45C105.357 13.6927 106.136 13.8367 106.786 14.1247C107.448 14.4127 107.954 14.8234 108.306 15.3567C108.658 15.8901 108.834 16.5247 108.834 17.2607C108.834 17.7194 108.749 18.1514 108.578 18.5567C108.418 18.9514 108.184 19.3087 107.874 19.6287C107.576 19.9487 107.213 20.2101 106.786 20.4127L109.426 25.0527H107.266L105.074 20.9247C104.957 20.9354 104.824 20.9461 104.674 20.9567C104.536 20.9567 104.392 20.9567 104.242 20.9567C103.869 20.9567 103.437 20.9194 102.946 20.8447V25.0527H101.026ZM102.946 15.3887V19.1487C103.17 19.1914 103.4 19.2234 103.634 19.2447C103.88 19.2554 104.12 19.2607 104.354 19.2607C105.144 19.2607 105.757 19.0901 106.194 18.7487C106.632 18.4074 106.85 17.9327 106.85 17.3247C106.85 16.7167 106.637 16.2421 106.21 15.9007C105.784 15.5594 105.186 15.3887 104.418 15.3887H102.946ZM114.489 25.2927C113.871 25.2927 113.3 25.1861 112.777 24.9727C112.265 24.7487 111.817 24.4394 111.433 24.0447C111.049 23.6501 110.751 23.1861 110.537 22.6527C110.335 22.1087 110.233 21.5114 110.233 20.8607C110.233 20.2314 110.335 19.6501 110.537 19.1167C110.751 18.5834 111.039 18.1194 111.401 17.7247C111.775 17.3194 112.212 17.0047 112.713 16.7807C113.215 16.5567 113.759 16.4447 114.345 16.4447C114.932 16.4447 115.465 16.5514 115.945 16.7647C116.436 16.9674 116.857 17.2607 117.209 17.6447C117.572 18.0287 117.849 18.4874 118.041 19.0207C118.233 19.5434 118.329 20.1247 118.329 20.7647V21.3087H112.137C112.191 21.7994 112.319 22.2261 112.521 22.5887C112.735 22.9407 113.007 23.2127 113.337 23.4047C113.668 23.5967 114.052 23.6927 114.489 23.6927C115.364 23.6927 116.047 23.3034 116.537 22.5247L118.153 23.1487C117.961 23.5861 117.679 23.9701 117.305 24.3007C116.943 24.6207 116.516 24.8661 116.025 25.0367C115.545 25.2074 115.033 25.2927 114.489 25.2927ZM114.345 17.9327C113.972 17.9327 113.636 18.0181 113.337 18.1887C113.049 18.3594 112.804 18.5994 112.601 18.9087C112.399 19.2181 112.26 19.5807 112.185 19.9967H116.409C116.345 19.5807 116.223 19.2181 116.041 18.9087C115.86 18.5994 115.62 18.3594 115.321 18.1887C115.033 18.0181 114.708 17.9327 114.345 17.9327ZM119.898 28.2207V16.6847H121.578L121.658 18.0287C121.957 17.5381 122.352 17.1541 122.842 16.8767C123.333 16.5887 123.882 16.4447 124.49 16.4447C125.045 16.4447 125.557 16.5567 126.026 16.7807C126.506 17.0047 126.922 17.3141 127.274 17.7087C127.626 18.1034 127.898 18.5674 128.09 19.1007C128.293 19.6341 128.394 20.2101 128.394 20.8287C128.394 21.4581 128.293 22.0447 128.09 22.5887C127.888 23.1327 127.605 23.6074 127.242 24.0127C126.88 24.4181 126.453 24.7327 125.962 24.9567C125.482 25.1807 124.96 25.2927 124.394 25.2927C123.84 25.2927 123.333 25.1754 122.874 24.9407C122.416 24.7061 122.037 24.3754 121.738 23.9487V28.2207H119.898ZM124.106 23.6287C124.565 23.6287 124.976 23.5114 125.338 23.2767C125.701 23.0314 125.984 22.7007 126.186 22.2847C126.4 21.8687 126.506 21.3941 126.506 20.8607C126.506 20.3274 126.4 19.8581 126.186 19.4527C125.984 19.0367 125.701 18.7114 125.338 18.4767C124.976 18.2314 124.565 18.1087 124.106 18.1087C123.648 18.1087 123.237 18.2314 122.874 18.4767C122.512 18.7114 122.224 19.0367 122.01 19.4527C121.808 19.8581 121.706 20.3274 121.706 20.8607C121.706 21.3941 121.808 21.8687 122.01 22.2847C122.224 22.7007 122.512 23.0314 122.874 23.2767C123.237 23.5114 123.648 23.6287 124.106 23.6287ZM133.974 25.2927C133.366 25.2927 132.8 25.1861 132.278 24.9727C131.766 24.7487 131.318 24.4394 130.934 24.0447C130.55 23.6394 130.251 23.1701 130.038 22.6367C129.824 22.0927 129.718 21.5007 129.718 20.8607C129.718 20.2314 129.824 19.6501 130.038 19.1167C130.251 18.5727 130.55 18.1034 130.934 17.7087C131.328 17.3034 131.787 16.9941 132.31 16.7807C132.843 16.5567 133.419 16.4447 134.038 16.4447C134.646 16.4447 135.206 16.5567 135.718 16.7807C136.24 16.9941 136.694 17.3034 137.078 17.7087C137.462 18.1034 137.76 18.5674 137.974 19.1007C138.187 19.6341 138.294 20.2207 138.294 20.8607C138.294 21.5007 138.187 22.0927 137.974 22.6367C137.76 23.1701 137.456 23.6394 137.062 24.0447C136.678 24.4394 136.219 24.7487 135.686 24.9727C135.163 25.1861 134.592 25.2927 133.974 25.2927ZM134.006 23.6287C134.464 23.6287 134.875 23.5114 135.238 23.2767C135.6 23.0314 135.883 22.7007 136.086 22.2847C136.299 21.8687 136.406 21.3941 136.406 20.8607C136.406 20.3274 136.299 19.8581 136.086 19.4527C135.883 19.0367 135.6 18.7114 135.238 18.4767C134.875 18.2314 134.464 18.1087 134.006 18.1087C133.547 18.1087 133.136 18.2314 132.774 18.4767C132.411 18.7114 132.123 19.0367 131.91 19.4527C131.707 19.8581 131.606 20.3274 131.606 20.8607C131.606 21.3941 131.707 21.8687 131.91 22.2847C132.123 22.7007 132.411 23.0314 132.774 23.2767C133.136 23.5114 133.547 23.6287 134.006 23.6287ZM139.914 25.0527V16.6847H141.594L141.674 18.0607C141.887 17.5914 142.181 17.2287 142.554 16.9727C142.938 16.7061 143.386 16.5727 143.898 16.5727C144.058 16.5727 144.213 16.5834 144.362 16.6047C144.511 16.6261 144.645 16.6634 144.762 16.7167L144.554 18.5087C144.437 18.4661 144.314 18.4394 144.186 18.4287C144.058 18.4074 143.93 18.3967 143.802 18.3967C143.162 18.3967 142.661 18.6101 142.298 19.0367C141.935 19.4634 141.754 20.0554 141.754 20.8127V25.0527H139.914ZM149.823 25.2927C148.98 25.2927 148.319 25.0527 147.839 24.5727C147.359 24.0821 147.119 23.3834 147.119 22.4767V18.1727H145.647V16.6847H147.119V13.8527H148.959V16.6847H151.391V18.1727H148.959V22.2847C148.959 22.7327 149.05 23.0794 149.231 23.3247C149.423 23.5594 149.7 23.6767 150.063 23.6767C150.255 23.6767 150.463 23.6501 150.687 23.5967C150.911 23.5327 151.119 23.4474 151.311 23.3407L151.727 24.7327C151.482 24.9034 151.194 25.0367 150.863 25.1327C150.543 25.2394 150.196 25.2927 149.823 25.2927Z" fill="white"/>
</svg>
