<svg width="24" height="24" viewBox="0 0 24 24" fill="none" xmlns="http://www.w3.org/2000/svg">
<path d="M15.5513 20.1096C15.9135 20.4792 15.9077 21.0729 15.5378 21.4352C13.8499 23.0891 11.5781 24 9.14062 24C6.69763 24 4.40314 23.0585 2.67993 21.3488C0.951782 19.6342 0 17.3463 0 14.9062V14.655C0 11.4879 2.64661 8.45068 4.98157 5.77112C6.56543 3.95361 8.20312 2.07404 8.20312 0.9375C8.20312 0.419678 8.6228 0 9.14062 0C9.65845 0 10.0781 0.419678 10.0781 0.9375C10.0781 2.14856 11.7393 4.03802 13.3455 5.86542C13.6377 6.19775 13.9398 6.54144 14.2385 6.8877C14.5767 7.27972 14.5329 7.8717 14.1411 8.2099C13.749 8.5481 13.157 8.50452 12.8187 8.1123C12.5259 7.77283 12.2267 7.43243 11.9374 7.10339C10.8367 5.85132 9.81866 4.69318 9.12433 3.58557C8.44116 4.65509 7.45697 5.7843 6.39514 7.00287C4.27643 9.43433 1.875 12.1902 1.875 14.655V14.9062C1.875 18.8866 5.13428 22.125 9.14062 22.125C11.0845 22.125 12.8903 21.4045 14.2255 20.096C14.5953 19.7336 15.1888 19.7397 15.5513 20.1096V20.1096ZM23.0625 16.6406C22.701 16.6406 22.2105 16.3015 21.7167 15.7103C21.3148 15.2291 20.7118 14.9531 20.0625 14.9531C19.4132 14.9531 18.8102 15.2291 18.4083 15.7103C17.9145 16.3015 17.424 16.6406 17.0625 16.6406C16.701 16.6406 16.2105 16.3015 15.7167 15.7103C15.3148 15.2291 14.7118 14.9531 14.0625 14.9531C13.4132 14.9531 12.8102 15.2291 12.4083 15.7103C11.9145 16.3015 11.424 16.6406 11.0625 16.6406C10.701 16.6406 10.2105 16.3015 9.71667 15.7103C9.31476 15.2291 8.71179 14.9531 8.0625 14.9531C7.41321 14.9531 6.81024 15.2291 6.40833 15.7103C5.91449 16.3015 5.42395 16.6406 5.0625 16.6406C4.54468 16.6406 4.125 17.0603 4.125 17.5781C4.125 18.0959 4.54468 18.5156 5.0625 18.5156C6.02179 18.5156 6.95874 17.9762 7.84735 16.9122C7.89148 16.8596 7.97186 16.8281 8.0625 16.8281C8.15314 16.8281 8.23352 16.8596 8.27765 16.9124C9.16626 17.9762 10.1032 18.5156 11.0625 18.5156C12.0218 18.5156 12.9587 17.9762 13.8474 16.9122C13.8915 16.8596 13.9719 16.8281 14.0625 16.8281C14.1531 16.8281 14.2335 16.8596 14.2776 16.9124C15.1663 17.9762 16.1032 18.5156 17.0625 18.5156C18.0218 18.5156 18.9587 17.9762 19.8474 16.9122C19.8915 16.8596 19.9719 16.8281 20.0625 16.8281C20.1531 16.8281 20.2335 16.8596 20.2776 16.9124C21.1663 17.9762 22.1032 18.5156 23.0625 18.5156C23.5803 18.5156 24 18.0959 24 17.5781C24 17.0603 23.5803 16.6406 23.0625 16.6406V16.6406ZM12.4083 11.0228C11.9145 11.614 11.424 11.9531 11.0625 11.9531C10.5447 11.9531 10.125 12.3728 10.125 12.8906C10.125 13.4084 10.5447 13.8281 11.0625 13.8281C12.0218 13.8281 12.9587 13.2887 13.8474 12.2247C13.8915 12.1721 13.9719 12.1406 14.0625 12.1406C14.1531 12.1406 14.2335 12.1721 14.2776 12.2249C15.1663 13.2887 16.1032 13.8281 17.0625 13.8281C18.0218 13.8281 18.9587 13.2887 19.8474 12.2247C19.8915 12.1721 19.9719 12.1406 20.0625 12.1406C20.1531 12.1406 20.2335 12.1721 20.2776 12.2249C21.1663 13.2887 22.1032 13.8281 23.0625 13.8281C23.5803 13.8281 24 13.4084 24 12.8906C24 12.3728 23.5803 11.9531 23.0625 11.9531C22.701 11.9531 22.2105 11.614 21.7167 11.0228C21.3148 10.5416 20.7118 10.2656 20.0625 10.2656C19.4132 10.2656 18.8102 10.5416 18.4083 11.0228C17.9145 11.614 17.424 11.9531 17.0625 11.9531C16.701 11.9531 16.2105 11.614 15.7167 11.0228C15.3148 10.5416 14.7118 10.2656 14.0625 10.2656C13.4132 10.2656 12.8102 10.5416 12.4083 11.0228V11.0228Z" fill="black"/>
</svg>
