<svg width="30" height="30" viewBox="0 0 30 30" fill="none" xmlns="http://www.w3.org/2000/svg">
<g clip-path="url(#clip0)">
<path d="M29.0617 14.0629H17.187C16.6695 14.0629 16.2495 13.643 16.2495 13.1255C16.2495 12.608 16.6695 12.188 17.187 12.188H29.0617C29.5792 12.188 29.9992 12.608 29.9992 13.1255C29.9992 13.643 29.5792 14.0629 29.0617 14.0629Z" fill="#636262" fill-opacity="0.9"/>
<path d="M24.3741 18.7504C24.134 18.7504 23.8942 18.6591 23.7115 18.4755C23.3453 18.1091 23.3453 17.5154 23.7115 17.1492L27.7365 13.1244L23.7115 9.09945C23.3453 8.73326 23.3453 8.13956 23.7115 7.77336C24.078 7.40693 24.6717 7.40693 25.0379 7.77336L29.7252 12.4607C30.0914 12.8269 30.0914 13.4206 29.7252 13.7868L25.0379 18.4741C24.8541 18.6591 24.6142 18.7504 24.3741 18.7504Z" fill="#636262" fill-opacity="0.9"/>
<path d="M9.99976 30C9.73221 30 9.47839 29.9625 9.22479 29.8838L1.70237 27.3776C0.678842 27.0201 0 26.0664 0 25.0003V2.50097C0 1.12223 1.12126 0.000976562 2.5 0.000976562C2.76732 0.000976562 3.02115 0.038512 3.27497 0.117245L10.7972 2.62342C11.8209 2.98093 12.4995 3.93465 12.4995 5.00074V27.5C12.4995 28.8788 11.3785 30 9.99976 30ZM2.5 1.87592C2.15623 1.87592 1.87494 2.15721 1.87494 2.50097V25.0003C1.87494 25.2665 2.05369 25.5139 2.30866 25.6027L9.79584 28.0976C9.84962 28.115 9.91966 28.1251 9.99976 28.1251C10.3435 28.1251 10.6246 27.8438 10.6246 27.5V5.00074C10.6246 4.73456 10.4458 4.48715 10.1909 4.39835L2.7037 1.90338C2.64991 1.88599 2.57988 1.87592 2.5 1.87592Z" fill="#636262" fill-opacity="0.9"/>
<path d="M19.0618 10.0007C18.5443 10.0007 18.1243 9.58076 18.1243 9.06327V3.43845C18.1243 2.57719 17.4233 1.87592 16.562 1.87592H2.49997C1.98249 1.87592 1.5625 1.45593 1.5625 0.938447C1.5625 0.420962 1.98249 0.000976562 2.49997 0.000976562H16.562C18.4583 0.000976562 19.9993 1.54222 19.9993 3.43845V9.06327C19.9993 9.58076 19.5793 10.0007 19.0618 10.0007Z" fill="#636262" fill-opacity="0.9"/>
<path d="M16.562 26.2502H11.562C11.0445 26.2502 10.6245 25.8303 10.6245 25.3128C10.6245 24.7953 11.0445 24.3753 11.562 24.3753H16.562C17.4232 24.3753 18.1243 23.674 18.1243 22.8128V17.188C18.1243 16.6705 18.5443 16.2505 19.0617 16.2505C19.5792 16.2505 19.9992 16.6705 19.9992 17.188V22.8128C19.9992 24.709 18.4582 26.2502 16.562 26.2502Z" fill="#636262" fill-opacity="0.9"/>
</g>
<defs>
<clipPath id="clip0">
<path d="M0 0H30V30H0V0Z" fill="white"/>
</clipPath>
</defs>
</svg>
