<svg width="30" height="27" viewBox="0 0 30 27" fill="none" xmlns="http://www.w3.org/2000/svg">
<path d="M29.9331 11.5077L24.8432 3.36349C24.789 3.27683 24.7064 3.21179 24.6095 3.17945L15.139 0.0225439C15.0488 -0.00751462 14.9513 -0.00751462 14.8611 0.0225439L5.39055 3.1795C5.29363 3.21185 5.21102 3.27689 5.15688 3.36355L0.0668569 11.5077C-0.0617559 11.7135 0.000763365 11.9846 0.206544 12.1132L1.81218 13.1169V26.0402H1.27101C1.02832 26.0402 0.831561 26.237 0.831561 26.4797C0.831561 26.7224 1.02832 26.9191 1.27101 26.9191H28.729C28.9717 26.9191 29.1684 26.7224 29.1684 26.4797C29.1684 26.237 28.9717 26.0402 28.729 26.0402H28.1878V13.1169L29.7935 12.1132C29.9992 11.9846 30.0618 11.7135 29.9331 11.5077ZM10.3299 26.0402L15 22.1485L19.6701 26.0402H10.3299ZM9.55561 25.5414V17.6114L14.3136 21.5764L9.55561 25.5414ZM20.4443 25.5414L15.6864 21.5764L17.635 19.9526C17.8215 19.7972 17.8467 19.5201 17.6913 19.3337C17.5359 19.1472 17.2587 19.122 17.0723 19.2774L14.9999 21.0044L10.3299 17.1127H19.67L18.6411 17.9701C18.4546 18.1255 18.4294 18.4026 18.5848 18.5891C18.6717 18.6934 18.7967 18.7472 18.9227 18.7472C19.0219 18.7472 19.1216 18.7138 19.2037 18.6454L20.4443 17.6116V25.5414ZM20.8813 16.2338H8.57493V15.1514H21.4251V16.2338H20.8819C20.8817 16.2338 20.8814 16.2338 20.8813 16.2338ZM28.0372 12.1745L23.5537 5.00106C23.4995 4.9144 23.4169 4.84936 23.32 4.81708L15.1389 2.09013C15.0488 2.06008 14.9512 2.06008 14.861 2.09013L9.46754 3.88796C9.23727 3.96472 9.11288 4.21362 9.18958 4.44383C9.26633 4.67411 9.51518 4.79856 9.74545 4.7218L15 2.97033L22.8921 5.60094L27.3089 12.6675V26.0402H21.3233V17.1127H21.8645C22.1072 17.1127 22.304 16.9159 22.304 16.6732V14.7119C22.304 14.4692 22.1072 14.2725 21.8645 14.2725H8.13548C7.89278 14.2725 7.69603 14.4692 7.69603 14.7119V16.6732C7.69603 16.9159 7.89278 17.1127 8.13548 17.1127H8.67665V26.0402H2.69108V12.6675L7.10786 5.60094L7.9437 5.32233C8.17397 5.24557 8.29837 4.99672 8.22167 4.76645C8.14491 4.53618 7.89601 4.41178 7.66579 4.48848L6.68001 4.81708C6.5831 4.84936 6.50048 4.91446 6.44634 5.00106L1.96277 12.1745L1.04508 11.6008L5.8184 3.96331L15 0.902677L24.1816 3.96331L28.9549 11.6009L28.0372 12.1745Z" fill="#636262"/>
<path d="M18.4322 5.93701H11.5677C11.3251 5.93701 11.1283 6.13377 11.1283 6.37646V12.2603C11.1283 12.503 11.3251 12.6998 11.5677 12.6998H18.4322C18.6749 12.6998 18.8717 12.503 18.8717 12.2603V6.37646C18.8717 6.13377 18.6749 5.93701 18.4322 5.93701ZM17.9928 11.8209H15.4394V8.33776C15.4394 8.09501 15.2427 7.89831 15 7.89831C14.7573 7.89831 14.5605 8.09501 14.5605 8.33776V11.8209H12.0072V6.81591H17.9928V11.8209Z" fill="#636262"/>
</svg>
