<svg width="11" height="19" viewBox="0 0 11 19" fill="none" xmlns="http://www.w3.org/2000/svg">
<path fill-rule="evenodd" clip-rule="evenodd" d="M1.70711 0.292893C1.31658 -0.0976311 0.683417 -0.0976311 0.292893 0.292893C-0.0976311 0.683418 -0.0976311 1.31658 0.292893 1.70711L8.03549 9.44971L0.292893 17.1923C-0.0976311 17.5828 -0.0976311 18.216 0.292893 18.6065C0.683417 18.997 1.31658 18.997 1.70711 18.6065L9.93474 10.3789C10.0277 10.3321 10.1148 10.27 10.1924 10.1924C10.3967 9.98808 10.4941 9.71735 10.4847 9.44971C10.4941 9.18206 10.3967 8.91134 10.1924 8.70703C10.1148 8.62945 10.0277 8.56729 9.93474 8.52053L1.70711 0.292893Z" fill="#2E86AB"/>
</svg>
