<svg width="26" height="26" viewBox="0 0 26 26" fill="none" xmlns="http://www.w3.org/2000/svg">
<g clip-path="url(#clip0)">
<path d="M24.6692 10.2716L22.8442 9.96206C22.6541 9.34832 22.4097 8.7563 22.111 8.19144L23.1864 6.68696C23.6426 6.04606 23.572 5.17161 23.0126 4.61762L21.3941 2.99908C21.0899 2.69492 20.688 2.52655 20.2589 2.52655C19.9222 2.52655 19.6017 2.62975 19.3301 2.82527L17.8202 3.90068C17.2337 3.59109 16.6199 3.33582 15.9844 3.14572L15.6803 1.34252C15.5499 0.565836 14.8819 0.000976562 14.0943 0.000976562H11.8077C11.0202 0.000976562 10.3521 0.565836 10.2218 1.34252L9.90677 3.18917C9.29846 3.37927 8.70644 3.62911 8.14158 3.93327L6.64796 2.85786C6.3764 2.66233 6.05052 2.55914 5.71377 2.55914C5.2847 2.55914 4.87735 2.72751 4.57862 3.03167L2.95465 4.65021C2.40065 5.2042 2.32461 6.07865 2.78085 6.71955L3.86712 8.24575C3.56839 8.81604 3.32941 9.40806 3.14475 10.0218L1.34154 10.326C0.56486 10.4563 0 11.1244 0 11.9119V14.1985C0 14.986 0.56486 15.6541 1.34154 15.7845L3.1882 16.0995C3.3783 16.7078 3.62814 17.2998 3.93229 17.8647L2.86232 19.3528C2.40609 19.9937 2.47669 20.8682 3.03612 21.4222L4.65466 23.0407C4.95882 23.3449 5.36074 23.5133 5.78981 23.5133C6.12655 23.5133 6.447 23.4101 6.71857 23.2145L8.24478 22.1283C8.79334 22.4161 9.36907 22.6497 9.96108 22.8343L10.2652 24.6593C10.3956 25.436 11.0636 26.0008 11.8512 26.0008H14.1432C14.9308 26.0008 15.5988 25.436 15.7292 24.6593L16.0388 22.8343C16.6525 22.6442 17.2445 22.3998 17.8094 22.1011L19.3139 23.1765C19.5854 23.372 19.9113 23.4752 20.248 23.4752C20.6771 23.4752 21.079 23.3069 21.3832 23.0027L23.0017 21.3842C23.5557 20.8302 23.6318 19.9557 23.1755 19.3148L22.1001 17.8049C22.3989 17.2346 22.6487 16.6426 22.8334 16.0343L24.6583 15.7301C25.435 15.5998 25.9998 14.9317 25.9998 14.1442V11.8576C26.0107 11.0701 25.4458 10.402 24.6692 10.2716ZM24.5442 14.1442C24.5442 14.2148 24.4954 14.2745 24.4247 14.2854L22.1436 14.6656C21.8557 14.7145 21.6276 14.9263 21.557 15.2033C21.3506 16.0017 21.0356 16.7675 20.6119 17.479C20.4653 17.7289 20.4762 18.0385 20.6445 18.2774L21.9861 20.1675C22.0241 20.2219 22.0187 20.3033 21.9698 20.3522L20.3512 21.9708C20.3132 22.0088 20.2752 22.0142 20.248 22.0142C20.2155 22.0142 20.1883 22.0033 20.1666 21.987L18.2819 20.6455C18.0484 20.4771 17.7333 20.4663 17.4835 20.6129C16.772 21.0366 16.0062 21.3516 15.2078 21.558C14.9253 21.6286 14.7135 21.8621 14.6701 22.1446L14.2844 24.4257C14.2736 24.4963 14.2138 24.5452 14.1432 24.5452H11.8566C11.786 24.5452 11.7263 24.4963 11.7154 24.4257L11.3352 22.1446C11.2863 21.8567 11.0745 21.6286 10.7975 21.558C10.0208 21.357 9.2713 21.0474 8.57066 20.6455C8.4566 20.5803 8.32625 20.5477 8.20133 20.5477C8.05468 20.5477 7.9026 20.5912 7.77768 20.6835L5.87671 22.0359C5.84956 22.0522 5.8224 22.0631 5.79524 22.0631C5.77352 22.0631 5.73007 22.0577 5.69205 22.0196L4.07351 20.4011C4.02463 20.3522 4.01919 20.2762 4.05721 20.2164L5.39332 18.3426C5.5617 18.1036 5.57256 17.7886 5.42591 17.5388C5.00227 16.8327 4.67639 16.0669 4.47 15.2685C4.39396 14.9915 4.16584 14.7797 3.88341 14.7308L1.58595 14.3397C1.51534 14.3289 1.46646 14.2691 1.46646 14.1985V11.9119C1.46646 11.8413 1.51534 11.7816 1.58595 11.7707L3.85082 11.3905C4.13868 11.3416 4.37223 11.1298 4.44284 10.8474C4.6438 10.049 4.95338 9.27771 5.3716 8.5662C5.51824 8.31636 5.50195 8.00677 5.33358 7.77323L3.98117 5.87226C3.94316 5.81794 3.94859 5.73647 3.99747 5.68759L5.61601 4.06905C5.65403 4.03103 5.69205 4.0256 5.7192 4.0256C5.75179 4.0256 5.77895 4.03646 5.80067 4.05276L7.67449 5.38887C7.91347 5.55724 8.22849 5.5681 8.47833 5.42146C9.1844 4.99781 9.95022 4.67193 10.7486 4.46554C11.0256 4.3895 11.2374 4.16138 11.2863 3.87895L11.6774 1.5815C11.6882 1.51089 11.748 1.46201 11.8186 1.46201H14.1052C14.1758 1.46201 14.2355 1.51089 14.2464 1.5815L14.6266 3.84637C14.6755 4.13423 14.8873 4.36778 15.1697 4.43838C15.9899 4.64477 16.772 4.96522 17.4998 5.3943C17.7496 5.54095 18.0592 5.53008 18.2982 5.36171L20.172 4.01474C20.1992 3.99844 20.2263 3.98758 20.2535 3.98758C20.2752 3.98758 20.3187 3.99301 20.3567 4.03103L21.9752 5.64957C22.0241 5.69845 22.0295 5.77449 21.9915 5.83424L20.65 7.71891C20.4816 7.95246 20.4707 8.26748 20.6174 8.51732C21.041 9.22883 21.356 9.99465 21.5624 10.7931C21.633 11.0755 21.8666 11.2873 22.149 11.3308L24.4302 11.7164C24.5008 11.7272 24.5497 11.787 24.5497 11.8576V14.1442H24.5442Z" fill="#636262"/>
<path d="M13.0027 7.38672C9.9068 7.38672 7.39209 9.90143 7.39209 12.9973C7.39209 16.0932 9.9068 18.6079 13.0027 18.6079C16.0985 18.6079 18.6132 16.0932 18.6132 12.9973C18.6132 9.90143 16.0985 7.38672 13.0027 7.38672ZM13.0027 17.1414C10.7161 17.1414 8.85855 15.2839 8.85855 12.9973C8.85855 10.7107 10.7161 8.85318 13.0027 8.85318C15.2893 8.85318 17.1468 10.7107 17.1468 12.9973C17.1468 15.2839 15.2893 17.1414 13.0027 17.1414Z" fill="#636262"/>
</g>
<defs>
<clipPath id="clip0">
<rect width="26" height="26" fill="white"/>
</clipPath>
</defs>
</svg>
