<svg width="24" height="24" viewBox="0 0 24 24" fill="none" xmlns="http://www.w3.org/2000/svg">
<path d="M12.3874 15.118V4.25659H11.6126V15.118C9.87397 15.3117 8.51807 16.7904 8.51807 18.581C8.51807 20.5038 10.0818 22.0629 12 22.0629C13.9181 22.0629 15.4818 20.4991 15.4818 18.581C15.4818 16.7904 14.1259 15.3117 12.3874 15.118ZM12 21.2881C10.507 21.2881 9.28815 20.0739 9.28815 18.5763C9.28815 17.0834 10.5023 15.8645 12 15.8645C13.4976 15.8645 14.7118 17.0786 14.7118 18.5763C14.7118 20.0739 13.4929 21.2881 12 21.2881Z" fill="black"/>
<path d="M14.3244 13.6866V12.7748H16.2614V12H14.3244V10.4504H15.4866V9.67559H14.3244V8.12598H16.2614V7.35118H14.3244V5.80157H15.4866V5.02677H14.3244V3.48189H16.2614V2.71181H14.3244V2.32441C14.3244 1.04409 13.2803 0 11.9999 0C10.7196 0 9.67554 1.04409 9.67554 2.32441V13.6866C7.78578 14.5843 6.58105 16.4787 6.58105 18.5811C6.58105 21.5717 9.01412 24 11.9999 24C14.9858 24 17.4188 21.5669 17.4188 18.5811C17.4188 16.474 16.2141 14.5795 14.3244 13.6866ZM11.9999 23.2252C9.43932 23.2252 7.35586 21.1417 7.35586 18.5811C7.35586 15.2929 10.4503 14.1921 10.4503 14.1921V2.32441C10.4503 1.46929 11.1448 0.774803 11.9999 0.774803C12.8551 0.774803 13.5496 1.46929 13.5496 2.32441V14.1969C13.5496 14.1969 16.644 15.274 16.644 18.5858C16.644 21.1417 14.5606 23.2252 11.9999 23.2252Z" fill="black"/>
</svg>
