<svg width="22" height="22" viewBox="0 0 22 22" fill="none" xmlns="http://www.w3.org/2000/svg">
<path d="M21.5523 0H0.447697C0.200494 0 0 0.200494 0 0.447697V21.5523C0 21.7995 0.200494 22 0.447697 22H18.387C18.6342 22 18.8347 21.7995 18.8347 21.5523C18.8347 21.3051 18.6342 21.1046 18.387 21.1046H0.895395V0.895395H21.1046V21.5523C21.1046 21.7995 21.3051 22 21.5523 22C21.7995 22 22 21.7995 22 21.5523V0.447697C22 0.200494 21.7995 0 21.5523 0Z" fill="#636262"/>
<path d="M4.91088 4.65771C3.96452 4.65771 3.1947 5.42753 3.1947 6.37389C3.1947 7.32025 3.96452 8.09006 4.91088 8.09006C5.85723 8.09006 6.62705 7.32025 6.62705 6.37389C6.62705 5.42753 5.85723 4.65771 4.91088 4.65771ZM4.91088 7.19467C4.45833 7.19467 4.0901 6.82644 4.0901 6.37389C4.0901 5.92134 4.45833 5.55311 4.91088 5.55311C5.36342 5.55311 5.73165 5.92134 5.73165 6.37389C5.73165 6.82644 5.3635 7.19467 4.91088 7.19467Z" fill="#636262"/>
<path d="M18.4164 5.92603H7.97016C7.72295 5.92603 7.52246 6.12652 7.52246 6.37372C7.52246 6.62093 7.72295 6.82142 7.97016 6.82142H18.4164C18.6636 6.82142 18.8641 6.62093 18.8641 6.37372C18.8641 6.12652 18.6637 5.92603 18.4164 5.92603Z" fill="#636262"/>
<path d="M4.91088 9.28394C4.66367 9.28394 4.46318 9.48443 4.46318 9.73163C4.46318 9.97884 4.66367 10.1793 4.91088 10.1793C5.36342 10.1793 5.73165 10.5476 5.73165 11.0001C5.73165 11.4527 5.36342 11.8209 4.91088 11.8209C4.45833 11.8209 4.0901 11.4527 4.0901 11.0001C4.0901 10.7529 3.8896 10.5524 3.6424 10.5524C3.3952 10.5524 3.1947 10.7529 3.1947 11.0001C3.1947 11.9465 3.96452 12.7163 4.91088 12.7163C5.85723 12.7163 6.62705 11.9465 6.62705 11.0001C6.62705 10.0538 5.85723 9.28394 4.91088 9.28394Z" fill="#636262"/>
<path d="M18.4164 10.5522H7.97016C7.72295 10.5522 7.52246 10.7527 7.52246 10.9999C7.52246 11.2471 7.72295 11.4476 7.97016 11.4476H18.4164C18.6636 11.4476 18.8641 11.2471 18.8641 10.9999C18.8641 10.7527 18.6637 10.5522 18.4164 10.5522Z" fill="#636262"/>
<path d="M4.91088 13.9099C3.96452 13.9099 3.1947 14.6797 3.1947 15.6261C3.1947 16.5724 3.96452 17.3423 4.91088 17.3423C5.85723 17.3423 6.62705 16.5724 6.62705 15.6261C6.62705 14.6797 5.85723 13.9099 4.91088 13.9099ZM4.91088 16.4469C4.45833 16.4469 4.0901 16.0786 4.0901 15.6261C4.0901 15.1735 4.45833 14.8053 4.91088 14.8053C5.36342 14.8053 5.73165 15.1735 5.73165 15.6261C5.73165 16.0786 5.3635 16.4469 4.91088 16.4469Z" fill="#636262"/>
<path d="M18.4164 15.1785H7.97016C7.72295 15.1785 7.52246 15.379 7.52246 15.6262C7.52246 15.8734 7.72295 16.0739 7.97016 16.0739H18.4164C18.6636 16.0739 18.8641 15.8734 18.8641 15.6262C18.8641 15.379 18.6637 15.1785 18.4164 15.1785Z" fill="#636262"/>
</svg>
