<svg width="32" height="32" viewBox="0 0 32 32" fill="none" xmlns="http://www.w3.org/2000/svg">
<path d="M31.0832 15.63C30.5739 15.63 30.1664 16.0374 30.1664 16.5468V24.8863C30.1664 27.1546 28.3192 28.995 26.0577 28.995H5.94228C3.67402 28.995 1.83362 27.1478 1.83362 24.8863V16.4109C1.83362 15.9016 1.42615 15.4941 0.916808 15.4941C0.40747 15.4941 0 15.9016 0 16.4109V24.8863C0 28.1665 2.66893 30.8286 5.94228 30.8286H26.0577C29.3379 30.8286 32 28.1597 32 24.8863V16.5468C32 16.0442 31.5925 15.63 31.0832 15.63Z" fill="#BDBDBD"/>
<path d="M10.8183 8.56746L15.0831 4.3026V22.9036C15.0831 23.413 15.4906 23.8204 15.9999 23.8204C16.5093 23.8204 16.9168 23.413 16.9168 22.9036V4.3026L21.1816 8.56746C21.3582 8.74403 21.5959 8.83911 21.8268 8.83911C22.0645 8.83911 22.2954 8.75082 22.4719 8.56746C22.8319 8.20753 22.8319 7.63028 22.4719 7.27035L16.6451 1.44352C16.4753 1.27374 16.2376 1.17188 15.9999 1.17188C15.7555 1.17188 15.5246 1.26695 15.3548 1.44352L9.52796 7.27035C9.16803 7.63028 9.16803 8.20753 9.52796 8.56746C9.8811 8.9206 10.4651 8.9206 10.8183 8.56746Z" fill="#BDBDBD"/>
</svg>
