<svg width="24" height="24" viewBox="0 0 24 24" fill="none" xmlns="http://www.w3.org/2000/svg">
<g opacity="0.5">
<path d="M12 14.5715H0.857143C0.383357 14.5715 0 14.9553 0 15.4287C0 15.902 0.383357 16.2858 0.857143 16.2858H12C12.9451 16.2858 13.7143 17.0546 13.7143 18.0001C13.7143 18.9456 12.9451 19.7144 12 19.7144C11.0549 19.7144 10.2857 18.9456 10.2857 18.0001C10.2857 17.5267 9.90236 17.143 9.42857 17.143C8.95478 17.143 8.57143 17.5267 8.57143 18.0001C8.57143 19.8906 10.1091 21.4287 12 21.4287C13.8909 21.4287 15.4286 19.8906 15.4286 18.0001C15.4286 16.1096 13.8909 14.5715 12 14.5715Z" fill="black"/>
<path d="M20.5714 6C18.6805 6 17.1428 7.53809 17.1428 9.42857C17.1428 9.90193 17.5262 10.2857 18 10.2857C18.4738 10.2857 18.8571 9.90193 18.8571 9.42857C18.8571 8.48309 19.6264 7.71429 20.5714 7.71429C21.5165 7.71429 22.2857 8.48309 22.2857 9.42857C22.2857 10.3741 21.5165 11.1429 20.5714 11.1429H0.924953C0.451167 11.1429 0.0678101 11.5266 0.0678101 12C0.0678101 12.4734 0.451167 12.8571 0.924953 12.8571H20.5714C22.4623 12.8571 24 11.3191 24 9.42857C24 7.53809 22.4623 6 20.5714 6Z" fill="black"/>
<path d="M12 2.57153C10.1091 2.57153 8.57143 4.10962 8.57143 6.00011C8.57143 6.47346 8.95478 6.85725 9.42857 6.85725C9.90236 6.85725 10.2857 6.47346 10.2857 6.00011C10.2857 5.05462 11.0549 4.28582 12 4.28582C12.9451 4.28582 13.7143 5.05462 13.7143 6.00011C13.7143 6.94559 12.9451 7.71439 12 7.71439H0.857143C0.383357 7.71439 0 8.09818 0 8.57153C0 9.04489 0.383357 9.42868 0.857143 9.42868H12C13.8909 9.42868 15.4286 7.89059 15.4286 6.00011C15.4286 4.10962 13.8909 2.57153 12 2.57153Z" fill="black"/>
</g>
</svg>
