<svg width="136" height="136" viewBox="0 0 136 136" fill="none" xmlns="http://www.w3.org/2000/svg">
<path d="M40.102 123.158L38.254 123.157L36.0095 125.521L36.0105 120.313L34.6305 120.313L34.6289 129.001L36.0089 129.001L36.0092 127.369L36.7294 126.613L38.4449 129.001L40.1489 129.002L37.7015 125.629L40.102 123.158ZM45.8432 127.935C44.9912 127.935 44.2113 127.286 44.2115 126.074C44.2118 124.862 44.9919 124.239 45.8439 124.239C46.7079 124.239 47.4758 124.863 47.4755 126.075C47.4753 127.299 46.7072 127.935 45.8432 127.935ZM45.8441 122.979C44.1041 122.978 42.8199 124.286 42.8195 126.074C42.8192 127.874 44.103 129.182 45.843 129.183C47.595 129.183 48.8792 127.875 48.8795 126.075C48.8799 124.287 47.5961 122.979 45.8441 122.979ZM55.1924 127.936C54.3404 127.936 53.5606 127.288 53.5608 126.076C53.561 124.864 54.3411 124.24 55.1931 124.24C56.0571 124.24 56.825 124.865 56.8248 126.077C56.8245 127.301 56.0564 127.936 55.1924 127.936ZM55.1933 122.98C53.4533 122.98 52.1691 124.288 52.1688 126.076C52.1684 127.876 53.4522 129.184 55.1922 129.184C56.9442 129.185 58.2284 127.877 58.2288 126.077C58.2291 124.289 56.9453 122.981 55.1933 122.98ZM67.4465 123.162L65.5985 123.162L63.3541 125.526L63.355 120.318L61.975 120.317L61.9735 129.005L63.3535 129.006L63.3538 127.374L64.0739 126.618L65.7895 129.006L67.4935 129.006L65.0461 125.634L67.4465 123.162ZM76.3738 123.164L74.5258 123.164L72.2814 125.527L72.2823 120.319L70.9023 120.319L70.9008 129.007L72.2808 129.007L72.2811 127.375L73.0012 126.619L74.7168 129.008L76.4208 129.008L73.9734 125.636L76.3738 123.164ZM82.1151 127.941C81.2631 127.941 80.4832 127.293 80.4834 126.081C80.4836 124.869 81.2637 124.245 82.1157 124.245C82.9797 124.245 83.7476 124.869 83.7474 126.081C83.7472 127.305 82.9791 127.941 82.1151 127.941ZM82.116 122.985C80.376 122.985 79.0917 124.292 79.0914 126.08C79.0911 127.88 80.3749 129.189 82.1149 129.189C83.8669 129.189 85.1511 127.882 85.1514 126.082C85.1517 124.294 83.868 122.985 82.116 122.985ZM91.4643 127.943C90.6123 127.942 89.8324 127.294 89.8326 126.082C89.8329 124.87 90.613 124.246 91.465 124.247C92.329 124.247 93.0969 124.871 93.0966 126.083C93.0964 127.307 92.3283 127.943 91.4643 127.943ZM91.4652 122.987C89.7252 122.986 88.441 124.294 88.4406 126.082C88.4403 127.882 89.7241 129.19 91.4641 129.191C93.2161 129.191 94.5003 127.883 94.5006 126.083C94.501 124.295 93.2172 122.987 91.4652 122.987ZM103.718 123.169L101.87 123.168L99.626 125.532L99.6269 120.324L98.2469 120.324L98.2453 129.012L99.6253 129.012L99.6256 127.38L100.346 126.624L102.061 129.012L103.765 129.013L101.318 125.64L103.718 123.169Z" fill="#3A3A3A"/>
<path fill-rule="evenodd" clip-rule="evenodd" d="M30.7709 107.683C54.7154 88.9722 45.2195 42.8573 72.3747 43.5797C81.3729 43.8125 85.5148 47.248 85.5148 47.248C88.3549 47.2125 91.186 47.5718 93.9271 48.3156C97.8282 49.4956 98.4222 51.5264 98.4222 51.5264C98.4222 51.5264 88.2199 53.9987 86.6145 56.0135C85.0091 58.0283 83.4038 59.3286 82.3522 65.3649C80.2973 76.996 92.6669 95.0647 96.9131 105.628C97.2744 106.527 97.6115 107.418 97.9245 108.309H109.893V40.0799H118L67.992 2L18 40.0318H25.3928V108.301H30.209C30.3819 108.082 30.5696 107.876 30.7709 107.683Z" fill="#FECE47"/>
<path fill-rule="evenodd" clip-rule="evenodd" d="M88.1316 56.4951C80.4498 65.5736 83.9175 83.9714 95.2596 84.0918C102.171 84.1721 103.736 72.3725 98.0048 68.3911C93.1164 64.9957 87.2406 64.9475 88.1316 56.4951Z" fill="#A63D40"/>
<path fill-rule="evenodd" clip-rule="evenodd" d="M77.1668 54.7052C77.7997 54.6957 78.4157 54.4993 78.9373 54.1408C79.4589 53.7823 79.863 53.2775 80.0986 52.6901C80.3343 52.1026 80.391 51.4586 80.2617 50.839C80.1325 50.2193 79.8229 49.6517 79.372 49.2075C78.9211 48.7633 78.349 48.4622 77.7275 48.3422C77.106 48.2222 76.4629 48.2885 75.879 48.5329C75.2952 48.7772 74.7965 49.1887 74.4458 49.7157C74.0951 50.2426 73.9079 50.8614 73.9078 51.4944C73.9184 52.351 74.2667 53.1688 74.8769 53.77C75.4872 54.3713 76.3101 54.7073 77.1668 54.7052Z" fill="#A63D40"/>
<path fill-rule="evenodd" clip-rule="evenodd" d="M78.0498 52.5698C78.2907 52.5682 78.5258 52.4953 78.7254 52.3603C78.925 52.2253 79.0802 52.0342 79.1713 51.8111C79.2624 51.588 79.2854 51.3429 79.2374 51.1068C79.1894 50.8707 79.0726 50.654 78.9017 50.4842C78.7307 50.3143 78.5133 50.1989 78.2768 50.1525C78.0404 50.1061 77.7955 50.1307 77.573 50.2233C77.3505 50.3159 77.1604 50.4722 77.0267 50.6727C76.893 50.8732 76.8217 51.1087 76.8217 51.3497C76.8238 51.674 76.9541 51.9844 77.1842 52.2129C77.4143 52.4415 77.7254 52.5698 78.0498 52.5698Z" fill="white"/>
<path fill-rule="evenodd" clip-rule="evenodd" d="M86.3175 45.9959C86.5583 45.1932 95.4361 41.26 95.2034 36.524C94.9706 31.7881 89.3999 30.7205 89.3999 30.7205C89.3999 30.7205 93.7826 24.5639 86.4379 22.5491C79.0932 20.5343 71.6362 27.879 71.6362 27.879C71.6362 27.879 65.5999 24.7966 62.4052 29.7734C59.2104 34.7501 57.011 47.4728 57.011 47.4728C65.8568 39.2291 76.4845 40.8024 86.3175 45.9959Z" fill="#A63D40"/>
</svg>
